<svg xmlns="http://www.w3.org/2000/svg" viewBox="0 0 367.67 203.55"><title>background-sun</title><g id="圖層_2" data-name="圖層 2"><g id="圖層_4" data-name="圖層 4"><path d="M254.3,92.63v-.4c0-.14,0-.27,0-.41s0-.3,0-.44,0-.3,0-.44,0-.28,0-.41v-.14a.57.57,0,0,0,0-.13v-.13c0-.09,0-.18,0-.26s0-.25,0-.38l0-.35c0-.14,0-.29,0-.43l0-.41c0-.06,0-.11,0-.17s0-.2,0-.31l0-.35a1.49,1.49,0,0,0,0-.21c0-.15,0-.29,0-.44s0-.31,0-.46a2.54,2.54,0,0,1,0-.29.88.88,0,0,0,0-.16l0-.31c0-.12,0-.23,0-.35s0-.23-.05-.34a2.91,2.91,0,0,0,0-.31,1,1,0,0,0,0-.17c0-.09,0-.19,0-.29s-.05-.3-.07-.45l-.06-.44,0-.21-.06-.35c0-.1,0-.2-.05-.3l0-.17c0-.13,0-.26-.07-.4s-.05-.29-.08-.43l-.06-.34c0-.13,0-.25-.08-.37s0-.17,0-.26l0-.13,0-.13a.59.59,0,0,1,0-.13l-.09-.4-.09-.43c0-.15-.07-.29-.1-.43l-.09-.4,0-.13,0-.13,0-.13-.06-.25-.09-.37-.09-.33c0-.15-.07-.29-.11-.43l-.1-.4s0-.1-.05-.16l-.08-.29-.09-.34-.06-.2c0-.12-.07-.24-.11-.35l0-.11-.12-.41-.09-.28a1,1,0,0,0,0-.16l-.09-.3c0-.11-.07-.22-.11-.33s-.07-.22-.11-.33a2.47,2.47,0,0,0-.1-.29.75.75,0,0,0-.05-.16l-.09-.28-.1-.27a1.8,1.8,0,0,0-.08-.21l-.12-.37-.08-.2-.12-.33c0-.1-.07-.19-.11-.29s0-.1-.05-.15L250,70l-.16-.42c0-.11-.08-.21-.13-.32a1.67,1.67,0,0,0-.08-.2c0-.11-.09-.21-.13-.32s0-.13-.08-.19a.69.69,0,0,0-.05-.13l0-.12c-.05-.12-.11-.25-.16-.38l-.18-.4-.17-.41c-.06-.12-.11-.25-.17-.37a.61.61,0,0,1-.05-.12l-.06-.12-.06-.13,0-.11c-.06-.13-.12-.25-.17-.38s-.13-.26-.19-.39l-.19-.4-.18-.37-.08-.15c0-.09-.09-.18-.14-.27l-.15-.32c0-.06-.07-.12-.1-.19l-.16-.3-.21-.4c-.06-.12-.12-.24-.19-.36l-.08-.14c0-.09-.1-.18-.15-.27a3,3,0,0,0-.16-.31c-.06-.1-.12-.2-.17-.3a2.54,2.54,0,0,0-.16-.28l-.08-.14-.14-.25-.15-.26s-.05-.09-.08-.14l-.16-.26-.18-.31-.18-.3a2.26,2.26,0,0,1-.16-.26l-.09-.14-.22-.35-.23-.37a2.9,2.9,0,0,0-.19-.29l-.11-.18-.2-.29a2.33,2.33,0,0,0-.17-.26l-.09-.14-.23-.34-.24-.36-.26-.37-.23-.33-.08-.11-.07-.11a.76.76,0,0,1-.08-.11l-.08-.11-.24-.33-.26-.35-.27-.36-.24-.32-.1-.13-.19-.25c-.07-.09-.14-.19-.22-.28a1.83,1.83,0,0,0-.13-.16l-.21-.28-.28-.34c-.08-.11-.17-.21-.26-.32a1.47,1.47,0,0,1-.1-.13c-.07-.07-.13-.15-.2-.23l-.22-.27-.23-.27-.2-.24-.11-.12a2,2,0,0,0-.19-.22c-.06-.08-.13-.15-.19-.22l-.11-.13-.21-.23c-.07-.09-.15-.17-.23-.26s-.16-.17-.23-.26l-.21-.23-.11-.12-.28-.3-.31-.32-.23-.25-.15-.15-.25-.25-.21-.23-.12-.11-.29-.29c-.1-.11-.21-.21-.31-.31l-.32-.31-.29-.29-.1-.09-.09-.09-.1-.09-.1-.09-.3-.28-.32-.3-.33-.3-.3-.27-.13-.11-.23-.21-.26-.23-.16-.14-.27-.22-.33-.29-.32-.26-.12-.11-.24-.19-.27-.23-.28-.21-.24-.2-.13-.1-.23-.18-.23-.18-.13-.1-.25-.19-.27-.21-.29-.21-.25-.18-.13-.1-.33-.24-.36-.26a2.83,2.83,0,0,0-.28-.2l-.17-.12-.29-.2-.26-.18-.13-.09-.34-.23-.37-.25-.37-.24-.34-.22-.11-.07-.11-.08-.12-.07-.11-.07-.35-.21-.37-.24-.38-.23L223,38,222.9,38l-.12-.07-.18-.11-.3-.17a1.18,1.18,0,0,0-.19-.11l-.3-.17-.38-.22-.36-.2-.14-.07-.28-.15-.31-.17-.18-.1-.35-.18-.2-.1-.26-.13a2.1,2.1,0,0,0-.26-.13l-.15-.08-.27-.14-.32-.15-.31-.15-.28-.14-.15-.07-.26-.12-.4-.18-.1,0-.33-.15-.19-.09-.32-.14-.29-.12-.15-.07-.37-.16-.41-.17-.32-.13-.35-.14-.24-.1-.13,0-.12,0-.13-.05-.38-.15-.41-.15-.42-.16-.38-.14-.12,0-.13,0-.13,0-.24-.09-.36-.12-.33-.11-.42-.14-.39-.13-.15,0-.3-.09-.33-.1-.21-.07-.43-.12-.43-.13-.29-.08-.15,0-.3-.09-.34-.09-.34-.09-.3-.08-.16,0-.28-.07-.45-.1-.43-.11-.21-.05-.34-.08-.3-.06-.16,0-.4-.08-.44-.09-.34-.07-.37-.07-.25-.05-.13,0-.14,0-.12,0-.41-.07-.43-.07-.44-.07-.4-.07-.14,0-.13,0-.13,0-.26,0-.37-.06-.34,0-.44-.06-.41-.05-.16,0-.31,0-.35,0-.21,0-.44,0-.46,0-.29,0h-.17l-.3,0-.35,0-.35,0-.31,0h-.46l-.46,0-.44,0h-4.13l-.44,0H187.1l-.37,0-.35,0-.44,0-.41,0h-.16l-.31,0-.35,0-.21,0-.44.05-.46,0-.29,0-.16,0-.31,0-.35,0-.35,0-.31,0-.16,0-.29,0-.45.07-.44.06-.21,0-.35.06-.3.05-.17,0-.4.07-.43.08-.35.07-.36.07-.26.05-.13,0-.13,0-.13,0-.4.08-.43.1-.44.1-.39.09-.13,0-.13,0-.13,0-.26.07-.36.08-.34.09-.42.11-.4.11-.16,0-.3.09-.33.09-.21.06-.35.1-.1,0-.42.13-.27.08-.16,0-.3.1-.33.1-.33.11-.3.1-.15,0-.28.1-.28.09-.21.08-.37.13-.19.07-.33.12-.29.11-.16.06-.38.14-.41.17-.32.12-.2.08-.32.13-.2.08-.12.05-.12.06-.38.16-.4.17-.41.18-.37.16-.12.06-.12,0-.13.06-.12,0-.37.18-.4.19-.4.19-.36.18-.15.07-.28.14-.31.16-.19.09-.31.16-.39.21-.36.19-.14.08-.28.15-.3.17a3.07,3.07,0,0,0-.31.17l-.27.15-.14.08-.26.14-.25.15-.14.09-.27.16-.3.17-.3.19-.26.16-.14.08-.35.22-.37.24-.3.18-.17.12-.29.19-.26.17-.14.09-.34.23-.36.25-.37.25-.33.24-.11.07-.11.08L153,41l-.11.07-.33.25-.36.26-.35.26-.33.25-.13.1-.24.19-.28.21-.17.13-.27.22-.34.27-.32.26-.13.11-.24.19-.27.23-.26.22-.24.2-.12.11-.23.19-.22.19L148,45l-.23.21-.26.23-.26.24-.23.21-.12.11-.3.28-.32.3-.25.24-.16.15-.24.24-.23.22-.12.11-.28.29-.32.32-.3.31-.29.3-.09.09-.09.1-.09.1-.1.09-.27.3-.3.33-.3.32a4.12,4.12,0,0,1-.28.31l-.1.12-.21.23-.23.27-.14.16-.22.26-.29.34-.26.31-.11.13-.19.24-.23.27-.21.27-.2.25-.1.12-.18.23-.18.23-.1.13c-.06.09-.13.17-.19.25l-.21.28-.21.28c-.06.08-.12.17-.19.25l-.09.13c-.09.11-.16.22-.24.33l-.26.36-.2.28-.13.18-.19.28-.18.26-.09.14-.23.33c-.08.13-.17.25-.25.37l-.24.37-.22.34-.08.12-.07.11-.07.11-.07.11-.22.35c-.07.13-.15.25-.23.38l-.23.37-.21.36-.07.11-.07.11a1.74,1.74,0,0,1-.1.19l-.18.3-.1.18c-.06.1-.12.2-.17.3l-.22.39c-.06.12-.13.24-.2.36l-.08.14c0,.09-.09.18-.14.27l-.17.31c0,.06-.07.12-.1.19l-.18.34c0,.07-.07.13-.1.2l-.14.26a2.1,2.1,0,0,1-.13.26l-.07.15c-.05.09-.09.19-.14.28l-.15.31c-.06.11-.1.21-.15.32s-.09.18-.14.28l-.07.14c0,.09-.08.18-.13.27l-.17.39a.93.93,0,0,0,0,.1l-.15.33-.09.2c-.05.1-.09.21-.14.32l-.12.28-.07.15c0,.13-.1.25-.16.38s-.11.27-.17.41-.09.21-.13.32-.09.23-.14.35l-.1.24-.05.12s0,.09,0,.13a.61.61,0,0,1-.05.12c0,.13-.09.25-.14.38l-.16.42-.15.41c-.05.13-.1.26-.14.38l0,.13s0,.08,0,.13a.56.56,0,0,0,0,.12l-.09.25-.12.35c0,.11-.08.22-.11.33s-.1.28-.14.42-.09.26-.13.39,0,.1,0,.16l-.09.29a3.38,3.38,0,0,1-.11.34l-.06.2-.12.43c0,.15-.09.29-.13.44s-.06.19-.08.28,0,.11-.05.16,0,.2-.08.3l-.09.33-.09.34c0,.1-.05.2-.08.3s0,.11,0,.16-.05.19-.07.29-.07.3-.11.44-.07.29-.1.44a1.46,1.46,0,0,0,0,.2c0,.12,0,.23-.08.35s0,.2-.07.3l0,.16-.09.4-.09.43a3.4,3.4,0,0,1-.07.34l-.06.37-.06.26a.69.69,0,0,1,0,.13.59.59,0,0,0,0,.13l0,.13c0,.13,0,.27-.07.4s0,.29-.07.44,0,.29-.07.43,0,.27-.07.41,0,.09,0,.13,0,.09,0,.13,0,.09,0,.13l0,.26-.06.37c0,.12,0,.23,0,.35l-.06.44c0,.13,0,.27,0,.4s0,.11,0,.17l0,.3c0,.12,0,.24,0,.35a1.49,1.49,0,0,0,0,.21c0,.15,0,.3,0,.45s0,.3,0,.45,0,.2,0,.3,0,.1,0,.16,0,.21,0,.31l0,.35c0,.11,0,.23,0,.35s0,.2,0,.31,0,.11,0,.16a2.83,2.83,0,0,1,0,.29c0,.16,0,.31,0,.46l0,.45v.21c0,.12,0,.23,0,.35s0,.21,0,.31,0,.11,0,.16v.41c0,.15,0,.3,0,.45v1.38c0,.13,0,.27,0,.41s0,.29,0,.44,0,.29,0,.44,0,.27,0,.41v.13a.66.66,0,0,1,0,.14V96a2.28,2.28,0,0,1,0,.26c0,.12,0,.25,0,.37s0,.24,0,.35l0,.44c0,.14,0,.27,0,.41s0,.11,0,.16,0,.21,0,.31l0,.35c0,.07,0,.14,0,.21s0,.3,0,.45,0,.3,0,.45l0,.3s0,.1,0,.16,0,.2,0,.31l0,.35c0,.11,0,.23,0,.34s0,.21,0,.31,0,.11,0,.16,0,.2,0,.29,0,.31.07.46l.06.44a1.55,1.55,0,0,0,0,.21c0,.11,0,.23.05.34s0,.21,0,.31l0,.16c0,.14,0,.27.07.4s0,.29.08.44l.06.34c0,.12,0,.24.08.37a2.21,2.21,0,0,0,.05.25s0,.09,0,.14l0,.13,0,.13c0,.13,0,.26.08.4s.06.28.1.43l.09.43.09.4s0,.08,0,.13,0,.08,0,.13a.5.5,0,0,1,0,.13l.06.25.09.36.09.34c0,.14.07.29.11.43s.07.26.11.39,0,.11,0,.16.06.2.08.3.06.23.1.34l.06.2c0,.12.07.23.1.35l0,.1.12.42.09.28s0,.1.05.15.06.2.1.3.06.22.1.33.08.23.11.34.07.19.1.29,0,.11,0,.16l.09.27c0,.1.07.19.1.28l.08.21c0,.12.08.25.13.37a1.59,1.59,0,0,0,.07.2l.12.32.11.3.06.15c0,.13.09.25.14.38s.11.28.16.41.09.22.13.33,0,.13.08.19l.13.33c0,.06.05.13.08.19l0,.12a.5.5,0,0,1,.05.13c.06.12.11.25.16.37l.18.41.18.4c0,.13.11.25.16.38l.06.12a.61.61,0,0,0,0,.12l.06.12.05.12.18.37.18.4c.07.13.13.27.2.4l.18.37a.61.61,0,0,0,.07.14,2.44,2.44,0,0,0,.14.28l.15.32a1.62,1.62,0,0,1,.1.18c.05.11.11.21.16.31l.21.39c.06.12.12.24.19.36a1.09,1.09,0,0,0,.08.15l.15.27.16.31.18.3.15.27a1.09,1.09,0,0,0,.08.15l.14.25.15.25.08.14c.06.09.11.18.16.27l.18.3.18.3c.06.09.11.18.16.27l.09.14c.07.11.14.23.22.34s.16.25.23.38l.19.29a1.74,1.74,0,0,1,.11.18c.07.09.13.19.2.29l.17.26.09.13c.07.12.15.23.23.35l.25.36.25.36.23.34.08.11a1,1,0,0,1,.08.11l.07.1.08.11.24.33.26.36.27.35.24.33a1.13,1.13,0,0,1,.1.13l.2.25.21.27.13.17.21.27.28.35.26.31a1.47,1.47,0,0,0,.1.13l.2.24.22.27.23.27.2.23.11.13c.06.07.12.15.19.22l.19.22.11.12.21.24c.08.08.15.17.23.26l.24.26.2.22.12.13a3.83,3.83,0,0,0,.28.29l.3.33.24.25.14.15.25.25.22.22.11.12.29.29.31.31.32.31.29.28.1.1.1.09.09.09.1.09.3.28.33.3.32.3.31.27.12.11.23.2.26.24.16.13.27.23.34.28.31.27.13.1.24.2.27.22.27.22.24.19.13.11.23.18.23.18.13.1.25.18.28.22a2.83,2.83,0,0,0,.28.2l.25.19.13.1.33.24.36.26.28.2.17.12.29.2.26.18.13.09.34.23.37.24.37.25.34.22.11.07.12.07a.41.41,0,0,0,.11.07l.11.07.35.22.37.23.38.23.35.21.12.07.11.07.18.1.3.18.19.11.3.17.39.21.35.2.15.08.27.15.31.16.18.1.35.18.2.11.26.13.26.13.15.07.28.14.31.16.31.15.29.13a.61.61,0,0,0,.14.07l.27.13.39.18.1,0,.33.16.19.08.32.14.29.13.15.06.38.16.4.17.33.14.34.13.25.1.12.05.12,0,.13.05.38.15.41.15.42.15.38.15.13,0,.12.05.13,0,.25.08.35.13.33.11.42.14.39.12.16,0,.29.09.34.11.2.06.43.13.44.13.28.08.16,0,.3.08.33.1.34.08.3.08.16,0,.28.08.45.1.43.11.21.05.34.07.31.07.16,0,.4.08.43.09.34.07.37.07.25.05.14,0,.13,0,.13,0,.4.07.44.08.43.07.41.06.13,0,.13,0,.13,0,.26,0,.37.05.35.05.43,0,.41.05.16,0,.31,0,.35,0,.21,0,.44,0,.46,0,.29,0h.17l.31,0,.35,0,.34,0,.32,0h.16l.29,0,.46,0,.45,0h5.37l.26,0h.37l.35,0,.44,0,.41,0h.16l.31,0,.35,0h.21l.45-.05.45,0,.29,0h.17l.31,0,.34,0,.35-.05.31,0,.16,0,.29,0,.45-.07.45-.06.21,0,.34-.06.31-.05.16,0,.4-.07L202,156l.34-.06.36-.07.26-.05.13,0,.13,0,.13,0,.4-.09.44-.09.43-.1.4-.09.12,0,.14,0,.12,0,.26-.07c.12,0,.24,0,.36-.09l.34-.08.43-.12.39-.1.16-.05.3-.08.34-.09.2-.06.35-.11.1,0,.42-.12.28-.09.15-.05.3-.09.33-.11.33-.11.3-.09.16-.06.27-.09.28-.1.21-.07.37-.13.2-.07.32-.13.29-.1.16-.06.38-.15.41-.16.32-.12.2-.08.32-.14.2-.07.12-.06.12,0,.38-.16.41-.17.4-.18.37-.17.12,0,.13-.06.12-.05.12-.06.37-.17.4-.19.4-.19.37-.18.14-.07.28-.14.31-.16.19-.1.31-.16.39-.2.36-.19.14-.08.28-.15.31-.17.3-.17.27-.15.14-.08.26-.15.25-.15.14-.08.27-.16.3-.18.3-.18.26-.16.14-.09.35-.21.37-.24.3-.19.18-.11.29-.19.26-.17.13-.09.34-.23.37-.25.36-.26.34-.23.11-.08.1-.07.11-.08.11-.08.33-.24.36-.26.35-.26.33-.25.13-.1.24-.19.28-.21.17-.13.27-.22.34-.28.32-.25.13-.11.24-.2.27-.22.26-.23.24-.2.13-.1.22-.19.22-.2.12-.11.23-.2.26-.23.26-.24.23-.21.12-.11.3-.28.32-.3.26-.24.15-.15.25-.24.22-.22.12-.12.29-.29.31-.31.31-.32.28-.29.09-.1.1-.09.09-.1.09-.1.28-.3.3-.32.29-.33.28-.3.11-.13.2-.23c.08-.09.16-.17.23-.26l.14-.16c.08-.09.15-.18.23-.26s.19-.23.28-.34l.26-.31.11-.13.2-.24.22-.27.22-.28.19-.24a.64.64,0,0,0,.1-.13l.18-.22c.07-.08.12-.16.18-.24a.64.64,0,0,0,.1-.13,2.35,2.35,0,0,0,.19-.25l.21-.27.21-.28c.06-.09.13-.17.19-.25l.1-.14c.08-.1.16-.22.24-.33l.25-.36.21-.28.12-.17.2-.29.17-.25.1-.14.22-.34c.09-.12.17-.24.25-.37l.24-.37.23-.34.07-.11.07-.11.07-.11.07-.12.22-.34.23-.38.23-.38.21-.35.07-.11.07-.12.1-.18.18-.3.1-.18.17-.31c.08-.12.15-.25.22-.38l.2-.36.08-.14.15-.28.16-.3c0-.07.07-.13.1-.19l.18-.35.1-.19.14-.27.13-.26s0-.09.07-.14l.14-.28c.05-.11.11-.21.16-.31l.15-.32.13-.28.07-.15c0-.09.09-.17.13-.26l.18-.4a1,1,0,0,0,0-.1c.05-.11.11-.22.15-.33l.09-.19.14-.32.12-.29a1,1,0,0,0,.07-.15l.16-.37.17-.41c0-.11.09-.21.13-.32l.14-.35.1-.24a.5.5,0,0,0,0-.13l.05-.12a.61.61,0,0,1,0-.12l.14-.39c.06-.13.11-.27.16-.41l.15-.41c0-.13.1-.26.14-.39l.05-.12,0-.13.05-.12c0-.09,0-.17.08-.25l.13-.36c0-.11.07-.22.11-.33s.09-.27.13-.41.09-.26.13-.39,0-.11.05-.16l.09-.3.11-.33.06-.2.12-.43.14-.44c0-.1,0-.19.07-.28s0-.11,0-.16.05-.2.08-.3l.09-.34.09-.34c0-.1,0-.2.08-.3s0-.1,0-.16a2.86,2.86,0,0,0,.07-.28c0-.15.07-.3.11-.45s.07-.29.11-.43,0-.14,0-.21.05-.22.08-.34,0-.2.07-.3l0-.16.09-.4.09-.43c0-.12,0-.23.07-.35s0-.24.07-.36a2.38,2.38,0,0,1,.05-.26.59.59,0,0,0,0-.13l0-.13a.51.51,0,0,1,0-.13c0-.14.05-.27.07-.41s.05-.29.08-.43,0-.29.07-.44l.06-.4s0-.09,0-.13a.69.69,0,0,0,0-.13s0-.09,0-.14,0-.17,0-.26,0-.24.05-.37,0-.23,0-.34,0-.29.05-.44,0-.27.05-.41,0-.11,0-.16l0-.31c0-.11,0-.23,0-.35l0-.2c0-.15,0-.3,0-.45s0-.3,0-.46l0-.29a.86.86,0,0,1,0-.16c0-.11,0-.21,0-.31l0-.35c0-.12,0-.23,0-.35s0-.21,0-.31,0-.11,0-.17,0-.19,0-.29,0-.3,0-.45,0-.3,0-.45a1.48,1.48,0,0,1,0-.21v-.35c0-.11,0-.21,0-.31a1,1,0,0,0,0-.17c0-.13,0-.27,0-.41v-.79c0-.12,0-.25,0-.37Z" fill="#fecd38"/><path d="M274,93.87,283,85l-10.34-7.14,7.1-10.4-11.51-5,5-11.56L261,48.13l2.69-12.3-12.56-.36.29-12.59-12.4,2-2.11-12.41L225.1,16.88,220.66,5.1l-10.73,6.53L203.32.92l-6.94,6.33-6-7.25-8,9.68-9.73-8-6,11-11.08-6-3.81,12-12-3.75-1.46,12.48-12.51-1.39,1,12.53-12.55,1,3.33,12.12-12.12,3.4,5.57,11.26L99.64,72l7.62,10-10,7.69,9.39,8.36-8.32,9.45,10.81,6.41-6.36,10.86L114.66,129l-4.17,11.88,12.42,1.89-1.83,12.46,12.56-.52.58,12.58,12.23-2.9,3,12.23,11.45-5.18,5.25,11.44,10.25-7.27,7.34,10.23,8.67-9.09,9.16,8.64,6.78-10.58L219,181.58l4.64-11.68,11.72,4.58,2.33-12.35L250,164.39,250,151.82l12.59-.14-2.48-12.33,12.33-2.54-4.77-11.62,11.61-4.85-6.9-10.5,10.48-7Zm-10.9,14L259,121.5l-6.69,12.59-9,11.07-10.92,9.16-12.46,6.91-13.56,4.4-14.14,1.74-14.22-1-13.76-3.69-12.81-6.25-11.38-8.58-9.54-10.59-7.34-12.21-4.87-13.39-2.23-14.08.49-14.24,3.21-13.89,5.8-13,8.17-11.68L144,34.87l12-7.76,13.22-5.34,14-2.72h12.3l12.18,1.72,13.47,4.63,12.34,7.13,10.76,9.35L253,53.11l6.47,12.7,3.93,13.7,1.24,14.19Z" fill="#fe8d0e"/><path d="M232.48,60.5c-19.73-23.67-42.38,7.57-45.55,12.2-3.16-4.63-25.81-35.87-45.54-12.2-19.93,23.92,45.3,82.38,45.54,82.17C187.18,142.88,252.41,84.42,232.48,60.5Z" fill="none" stroke="#000" stroke-linecap="round" stroke-miterlimit="10" stroke-width="10"/><path d="M235.88,58c-19.73-23.67-42.38,7.57-45.54,12.2-3.17-4.63-25.82-35.87-45.55-12.2-19.92,23.91,45.3,82.38,45.55,82.17C190.58,140.33,255.81,81.86,235.88,58Z" fill="none" stroke="#fc636f" stroke-linecap="round" stroke-miterlimit="10" stroke-width="10"/><rect x="128.67" y="87.55" width="134" height="35" rx="17.5" ry="17.5" fill="#c46218"/><rect x="173.67" y="107.55" width="134" height="35" rx="17.5" ry="17.5" fill="#c46218"/><rect x="20.67" y="104.55" width="134" height="35" rx="17.5" ry="17.5" fill="#f99132"/><rect x="105.67" y="115.55" width="134" height="35" rx="17.5" ry="17.5" fill="#f99132"/><rect x="212.67" y="121.55" width="134" height="35" rx="17.5" ry="17.5" fill="#f99132"/><rect x="58.67" y="132.55" width="134" height="35" rx="17.5" ry="17.5" fill="#f7b884"/><rect x="115.67" y="149.55" width="134" height="35" rx="17.5" ry="17.5" fill="#f7b884"/><rect x="201.67" y="142.55" width="134" height="35" rx="17.5" ry="17.5" fill="#f7b884"/><rect x="20.67" y="163.55" width="134" height="35" rx="17.5" ry="17.5" fill="#f7b884"/><rect x="185.67" y="168.55" width="134" height="35" rx="17.5" ry="17.5" fill="#f7b884"/><path d="M28.51,96.82H20.07v27.75A5.12,5.12,0,0,1,19,128.13a3.55,3.55,0,0,1-2.76,1.16,3.63,3.63,0,0,1-2.8-1.17,5,5,0,0,1-1.09-3.55V96.82H3.91A4.31,4.31,0,0,1,1,95.94a3,3,0,0,1-1-2.3,2.93,2.93,0,0,1,1-2.35,4.37,4.37,0,0,1,2.91-.86h24.6a4.34,4.34,0,0,1,3,.89,3,3,0,0,1,1,2.32,2.92,2.92,0,0,1-1,2.3A4.4,4.4,0,0,1,28.51,96.82Z" fill="#fecd38"/><path d="M59.84,114.83a16.8,16.8,0,0,1-1,5.86A12.88,12.88,0,0,1,56,125.3a12.52,12.52,0,0,1-4.49,3,15.73,15.73,0,0,1-5.86,1,15.27,15.27,0,0,1-5.81-1,12.81,12.81,0,0,1-7.34-7.57,18.07,18.07,0,0,1,0-11.77,12.94,12.94,0,0,1,2.84-4.59,12.59,12.59,0,0,1,4.49-2.93,17,17,0,0,1,11.67,0A12.63,12.63,0,0,1,58.87,109,16.93,16.93,0,0,1,59.84,114.83Zm-7.14,0a10.72,10.72,0,0,0-1.91-6.78,6.22,6.22,0,0,0-5.15-2.42A6.4,6.4,0,0,0,42,106.71a6.87,6.87,0,0,0-2.45,3.19,14.47,14.47,0,0,0,0,9.8,6.92,6.92,0,0,0,2.43,3.19,6.69,6.69,0,0,0,8.86-1.33A10.67,10.67,0,0,0,52.7,114.83Z" fill="#fecd38"/><path d="M89.12,115.35v9.46a4.84,4.84,0,0,1-1,3.36,3.44,3.44,0,0,1-2.69,1.12,3.35,3.35,0,0,1-2.62-1.12,4.94,4.94,0,0,1-1-3.36V113.47a36.88,36.88,0,0,0-.18-4.17,4.53,4.53,0,0,0-1-2.44,3.19,3.19,0,0,0-2.56-1c-2.32,0-3.86.8-4.6,2.4a16.9,16.9,0,0,0-1.1,6.88v9.62a4.91,4.91,0,0,1-1,3.35,3.37,3.37,0,0,1-2.64,1.13,3.44,3.44,0,0,1-2.65-1.13,4.82,4.82,0,0,1-1-3.35V104.45a4.45,4.45,0,0,1,.93-3,3.1,3.1,0,0,1,2.43-1,3.31,3.31,0,0,1,2.44,1,3.65,3.65,0,0,1,1,2.7v.67a12.47,12.47,0,0,1,4-3.26,10.52,10.52,0,0,1,4.69-1,9.44,9.44,0,0,1,4.62,1.07,8.44,8.44,0,0,1,3.18,3.23,12.2,12.2,0,0,1,3.85-3.24,9.82,9.82,0,0,1,4.56-1.06,10.41,10.41,0,0,1,5,1.15,7.32,7.32,0,0,1,3.16,3.28,15.05,15.05,0,0,1,.91,6.08v13.89a4.84,4.84,0,0,1-1,3.36,3.72,3.72,0,0,1-5.33,0,4.87,4.87,0,0,1-1-3.35v-12a27.67,27.67,0,0,0-.19-3.68,4.19,4.19,0,0,0-1.06-2.32,3.34,3.34,0,0,0-2.6-.94,4.73,4.73,0,0,0-2.67.84,5.56,5.56,0,0,0-2,2.24A17.86,17.86,0,0,0,89.12,115.35Z" fill="#fecd38"/><path d="M136.34,115.35v9.46a4.84,4.84,0,0,1-1,3.36,3.44,3.44,0,0,1-2.69,1.12,3.35,3.35,0,0,1-2.62-1.12,4.89,4.89,0,0,1-1-3.36V113.47a36.88,36.88,0,0,0-.18-4.17,4.53,4.53,0,0,0-1-2.44,3.19,3.19,0,0,0-2.56-1q-3.5,0-4.6,2.4a16.88,16.88,0,0,0-1.11,6.88v9.62a4.91,4.91,0,0,1-1,3.35,3.37,3.37,0,0,1-2.64,1.13,3.44,3.44,0,0,1-2.65-1.13,4.82,4.82,0,0,1-1-3.35V104.45a4.45,4.45,0,0,1,.93-3,3.09,3.09,0,0,1,2.43-1,3.31,3.31,0,0,1,2.44,1,3.65,3.65,0,0,1,1,2.7v.67a12.47,12.47,0,0,1,4-3.26,10.52,10.52,0,0,1,4.69-1,9.38,9.38,0,0,1,4.61,1.07,8.3,8.3,0,0,1,3.18,3.23,12.34,12.34,0,0,1,3.86-3.24,9.79,9.79,0,0,1,4.56-1.06,10.41,10.41,0,0,1,5,1.15,7.32,7.32,0,0,1,3.16,3.28,15.05,15.05,0,0,1,.91,6.08v13.89a4.84,4.84,0,0,1-1,3.36,3.72,3.72,0,0,1-5.33,0,4.87,4.87,0,0,1-1-3.35v-12a27.67,27.67,0,0,0-.19-3.68,4.19,4.19,0,0,0-1.06-2.32,3.34,3.34,0,0,0-2.6-.94,4.79,4.79,0,0,0-2.68.84,5.62,5.62,0,0,0-2,2.24A17.8,17.8,0,0,0,136.34,115.35Z" fill="#fecd38"/><path d="M166.48,130.18l.65-1.59-8.76-22a8.24,8.24,0,0,1-.81-2.77,3.26,3.26,0,0,1,.47-1.69,3.6,3.6,0,0,1,3-1.72,2.8,2.8,0,0,1,2.32,1,9,9,0,0,1,1.38,2.8l6,17.52,5.71-16.3a30,30,0,0,1,1.22-3.1,3.72,3.72,0,0,1,1.16-1.51,3.25,3.25,0,0,1,1.74-.39,3.13,3.13,0,0,1,2.69,1.59,3.14,3.14,0,0,1,.41,1.54c-.07.33-.18.8-.34,1.41s-.35,1.22-.57,1.85L173.49,131a28.06,28.06,0,0,1-2.35,5,7.65,7.65,0,0,1-3,2.8,11.16,11.16,0,0,1-5.09,1,12.38,12.38,0,0,1-4.69-.68,2.47,2.47,0,0,1-1.57-2.48,2.38,2.38,0,0,1,.75-1.88,3.17,3.17,0,0,1,2.2-.67,3.89,3.89,0,0,1,1.12.16,5.5,5.5,0,0,0,1.17.15,4.28,4.28,0,0,0,1.93-.36,3.42,3.42,0,0,0,1.27-1.27A19.81,19.81,0,0,0,166.48,130.18Z" fill="#fecd38"/><path d="M32.73,92.6H24.28v27.76a5.14,5.14,0,0,1-1.06,3.56,3.62,3.62,0,0,1-2.77,1.16,3.62,3.62,0,0,1-2.8-1.18,5.07,5.07,0,0,1-1.08-3.54V92.6H8.12a4.27,4.27,0,0,1-2.94-.87,3,3,0,0,1-1-2.31,2.91,2.91,0,0,1,1-2.34,4.31,4.31,0,0,1,2.9-.86H32.73a4.31,4.31,0,0,1,3,.88,3,3,0,0,1,1,2.32,2.92,2.92,0,0,1-1,2.31A4.39,4.39,0,0,1,32.73,92.6Z" fill="#fc636f"/><path d="M64.06,110.61a16.86,16.86,0,0,1-1,5.87,13,13,0,0,1-2.87,4.61,12.61,12.61,0,0,1-4.48,3,16,16,0,0,1-5.87,1A15.5,15.5,0,0,1,44,124a12.87,12.87,0,0,1-7.34-7.58,16.78,16.78,0,0,1-1-5.85,17,17,0,0,1,1-5.91,12.8,12.8,0,0,1,2.84-4.59A12.41,12.41,0,0,1,44,97.18a17,17,0,0,1,11.68,0,12.67,12.67,0,0,1,4.51,3,12.81,12.81,0,0,1,2.85,4.59A16.87,16.87,0,0,1,64.06,110.61Zm-7.14,0A10.63,10.63,0,0,0,55,103.84a6.22,6.22,0,0,0-5.15-2.43,6.37,6.37,0,0,0-3.67,1.08,6.88,6.88,0,0,0-2.45,3.2,14.47,14.47,0,0,0,0,9.8,7,7,0,0,0,2.42,3.19A6.69,6.69,0,0,0,55,117.35,10.62,10.62,0,0,0,56.92,110.61Z" fill="#fc636f"/><path d="M93.33,111.13v9.46a4.87,4.87,0,0,1-1,3.37,3.46,3.46,0,0,1-2.68,1.12A3.37,3.37,0,0,1,87,124a4.92,4.92,0,0,1-1-3.37V109.26a36.44,36.44,0,0,0-.19-4.17,4.49,4.49,0,0,0-1-2.44,3.18,3.18,0,0,0-2.55-1q-3.5,0-4.6,2.4A16.88,16.88,0,0,0,76.57,111v9.61a4.89,4.89,0,0,1-1,3.35,3.64,3.64,0,0,1-5.29,0,4.8,4.8,0,0,1-1-3.35V100.24a4.43,4.43,0,0,1,.92-3,3.09,3.09,0,0,1,2.44-1,3.33,3.33,0,0,1,2.44,1,3.66,3.66,0,0,1,1,2.7v.68a12.55,12.55,0,0,1,4-3.26,10.56,10.56,0,0,1,4.7-1,9.3,9.3,0,0,1,4.61,1.07,8.37,8.37,0,0,1,3.18,3.23,12.4,12.4,0,0,1,3.86-3.25,9.87,9.87,0,0,1,4.56-1,10.35,10.35,0,0,1,5,1.15,7.24,7.24,0,0,1,3.15,3.28,15,15,0,0,1,.91,6.07v13.89a4.87,4.87,0,0,1-1,3.37,3.48,3.48,0,0,1-2.69,1.12,3.39,3.39,0,0,1-2.64-1.14,4.8,4.8,0,0,1-1-3.35v-12a27.24,27.24,0,0,0-.2-3.67,4.22,4.22,0,0,0-1-2.32,3.37,3.37,0,0,0-2.61-.94,4.8,4.8,0,0,0-2.67.83,5.78,5.78,0,0,0-2,2.24A17.86,17.86,0,0,0,93.33,111.13Z" fill="#fc636f"/><path d="M140.56,111.13v9.46a4.87,4.87,0,0,1-1,3.37,3.47,3.47,0,0,1-2.68,1.12,3.37,3.37,0,0,1-2.62-1.12,4.92,4.92,0,0,1-1-3.37V109.26a36.88,36.88,0,0,0-.18-4.17,4.49,4.49,0,0,0-1-2.44,3.18,3.18,0,0,0-2.55-1c-2.33,0-3.87.8-4.6,2.4A16.88,16.88,0,0,0,123.8,111v9.61a5,5,0,0,1-1,3.35,3.37,3.37,0,0,1-2.65,1.14,3.41,3.41,0,0,1-2.65-1.14,4.85,4.85,0,0,1-1-3.35V100.24a4.43,4.43,0,0,1,.92-3,3.09,3.09,0,0,1,2.44-1,3.29,3.29,0,0,1,2.43,1,3.63,3.63,0,0,1,1,2.7v.68a12.55,12.55,0,0,1,4-3.26,10.56,10.56,0,0,1,4.7-1,9.32,9.32,0,0,1,4.61,1.07,8.44,8.44,0,0,1,3.18,3.23,12.4,12.4,0,0,1,3.86-3.25,9.87,9.87,0,0,1,4.56-1,10.35,10.35,0,0,1,5,1.15,7.24,7.24,0,0,1,3.15,3.28,15,15,0,0,1,.91,6.07v13.89a4.87,4.87,0,0,1-1,3.37,3.49,3.49,0,0,1-2.69,1.12,3.39,3.39,0,0,1-2.64-1.14,4.8,4.8,0,0,1-1-3.35v-12a27.24,27.24,0,0,0-.2-3.67,4.22,4.22,0,0,0-1-2.32,3.37,3.37,0,0,0-2.61-.94,4.8,4.8,0,0,0-2.67.83,5.78,5.78,0,0,0-2,2.24A17.86,17.86,0,0,0,140.56,111.13Z" fill="#fc636f"/><path d="M170.69,126l.65-1.59-8.76-22.05a8.12,8.12,0,0,1-.8-2.76,3.23,3.23,0,0,1,.46-1.69,3.6,3.6,0,0,1,1.29-1.25,3.34,3.34,0,0,1,1.71-.47,2.79,2.79,0,0,1,2.32,1,9.17,9.17,0,0,1,1.38,2.81l6,17.51,5.71-16.29a26.89,26.89,0,0,1,1.23-3.1,3.57,3.57,0,0,1,1.16-1.51,3.21,3.21,0,0,1,1.73-.39,3,3,0,0,1,1.55.43,2.92,2.92,0,0,1,1.15,1.16,3.1,3.1,0,0,1,.4,1.53c-.07.33-.18.8-.34,1.41a17,17,0,0,1-.57,1.85l-9.28,24.29a28.5,28.5,0,0,1-2.34,5,7.75,7.75,0,0,1-3,2.81,11.21,11.21,0,0,1-5.1,1,12.45,12.45,0,0,1-4.69-.67,2.48,2.48,0,0,1-1.56-2.48,2.41,2.41,0,0,1,.74-1.89,3.23,3.23,0,0,1,2.2-.66,4.2,4.2,0,0,1,1.12.15,5.07,5.07,0,0,0,1.18.16,4.17,4.17,0,0,0,1.93-.37,3.37,3.37,0,0,0,1.26-1.26A20.06,20.06,0,0,0,170.69,126Z" fill="#fc636f"/><path d="M242.2,98v20a39.2,39.2,0,0,1-.22,4.43,14.28,14.28,0,0,1-1,3.71,10,10,0,0,1-4.3,4.91,14.22,14.22,0,0,1-7.3,1.76,15.09,15.09,0,0,1-6.47-1.23,9.44,9.44,0,0,1-4.19-4,14.72,14.72,0,0,1-1.35-3.36,13.64,13.64,0,0,1-.52-3.62,3.42,3.42,0,0,1,3.62-3.76,2.93,2.93,0,0,1,2.32.89,6.24,6.24,0,0,1,1.2,2.76,23.73,23.73,0,0,0,.89,3.21,4.82,4.82,0,0,0,1.48,2.06,4.59,4.59,0,0,0,3,.86q5.15,0,5.14-7.54V98a5.17,5.17,0,0,1,1-3.52,3.54,3.54,0,0,1,2.8-1.18,3.64,3.64,0,0,1,2.85,1.18A5.07,5.07,0,0,1,242.2,98Z" fill="#fecd38"/><path d="M270,120.09H256a9.37,9.37,0,0,0,1,4.27,6.61,6.61,0,0,0,2.52,2.79,6.68,6.68,0,0,0,3.48.94,8.56,8.56,0,0,0,2.34-.3,7.49,7.49,0,0,0,2-.94,15,15,0,0,0,1.83-1.37q.82-.72,2.16-2A2.37,2.37,0,0,1,273,123a2.6,2.6,0,0,1,1.77.6,2.16,2.16,0,0,1,.68,1.7,4.68,4.68,0,0,1-.76,2.25,8.84,8.84,0,0,1-2.28,2.48,13.11,13.11,0,0,1-3.83,2,16.58,16.58,0,0,1-5.31.78q-6.86,0-10.66-3.91t-3.8-10.61a17.59,17.59,0,0,1,.94-5.85,12.83,12.83,0,0,1,2.73-4.63,12,12,0,0,1,4.43-3,16.06,16.06,0,0,1,5.84-1,13.89,13.89,0,0,1,7.16,1.76,11.68,11.68,0,0,1,4.47,4.55,12,12,0,0,1,1.48,5.68c0,1.79-.51,3-1.54,3.48A9.53,9.53,0,0,1,270,120.09Zm-13.92-4h12.9a8.63,8.63,0,0,0-2-5.46,5.87,5.87,0,0,0-4.49-1.81,5.68,5.68,0,0,0-4.37,1.84A9.07,9.07,0,0,0,256,116.05Z" fill="#fecd38"/><path d="M304.73,123.5a8.27,8.27,0,0,1-5.67,8.23,19,19,0,0,1-6.82,1.08,16.7,16.7,0,0,1-6.57-1.17,9.62,9.62,0,0,1-4-2.94,6,6,0,0,1-1.3-3.53,2.74,2.74,0,0,1,.84-2,2.86,2.86,0,0,1,2.11-.83,2.45,2.45,0,0,1,1.72.55,5.81,5.81,0,0,1,1.14,1.54,6.84,6.84,0,0,0,6.78,3.78,6,6,0,0,0,3.51-1,2.66,2.66,0,0,0,1.36-2.17,3,3,0,0,0-1.42-2.74,17.51,17.51,0,0,0-4.67-1.64,39,39,0,0,1-6-1.92,9.93,9.93,0,0,1-3.68-2.64,6,6,0,0,1-1.39-4,7.13,7.13,0,0,1,1.28-4,8.79,8.79,0,0,1,3.77-3,14.52,14.52,0,0,1,6-1.13,19.83,19.83,0,0,1,5,.57,12.51,12.51,0,0,1,3.68,1.54,7.44,7.44,0,0,1,2.24,2.14,4.18,4.18,0,0,1,.77,2.29,2.69,2.69,0,0,1-.82,2,3.27,3.27,0,0,1-2.34.78,2.83,2.83,0,0,1-1.86-.63,12.17,12.17,0,0,1-1.76-1.87,6.28,6.28,0,0,0-1.9-1.67,6,6,0,0,0-3-.63,5.88,5.88,0,0,0-3.21.82,2.41,2.41,0,0,0-1.28,2,2.23,2.23,0,0,0,.94,1.84,8,8,0,0,0,2.53,1.18c1.06.32,2.52.7,4.38,1.15a23.47,23.47,0,0,1,5.41,1.93,9.24,9.24,0,0,1,3.18,2.64A5.89,5.89,0,0,1,304.73,123.5Z" fill="#fecd38"/><path d="M333.66,123.5a8.24,8.24,0,0,1-5.67,8.23,19,19,0,0,1-6.82,1.08,16.62,16.62,0,0,1-6.56-1.17,9.49,9.49,0,0,1-4-2.94,5.9,5.9,0,0,1-1.31-3.53,2.74,2.74,0,0,1,.84-2,2.87,2.87,0,0,1,2.11-.83,2.45,2.45,0,0,1,1.72.55,6,6,0,0,1,1.15,1.54,6.84,6.84,0,0,0,6.77,3.78,6,6,0,0,0,3.51-1,2.68,2.68,0,0,0,1.37-2.17,3,3,0,0,0-1.42-2.74,17.74,17.74,0,0,0-4.68-1.64,39,39,0,0,1-6-1.92,9.93,9.93,0,0,1-3.68-2.64,6.07,6.07,0,0,1-1.38-4,7.12,7.12,0,0,1,1.27-4,8.79,8.79,0,0,1,3.77-3,14.52,14.52,0,0,1,6-1.13,19.83,19.83,0,0,1,5,.57,12.39,12.39,0,0,1,3.68,1.54,7.44,7.44,0,0,1,2.24,2.14,4.18,4.18,0,0,1,.77,2.29,2.69,2.69,0,0,1-.82,2,3.27,3.27,0,0,1-2.34.78,2.83,2.83,0,0,1-1.86-.63,12.17,12.17,0,0,1-1.76-1.87,6.28,6.28,0,0,0-1.9-1.67,6,6,0,0,0-3-.63,5.88,5.88,0,0,0-3.21.82,2.41,2.41,0,0,0-1.28,2,2.23,2.23,0,0,0,.94,1.84,8,8,0,0,0,2.53,1.18c1.06.32,2.52.7,4.38,1.15a23.3,23.3,0,0,1,5.41,1.93,9.06,9.06,0,0,1,3.18,2.64A5.89,5.89,0,0,1,333.66,123.5Z" fill="#fecd38"/><path d="M346.25,133.69l.65-1.59-8.76-22a8.2,8.2,0,0,1-.81-2.76,3.24,3.24,0,0,1,.47-1.69,3.6,3.6,0,0,1,1.29-1.25,3.34,3.34,0,0,1,1.71-.47,2.79,2.79,0,0,1,2.32,1,9.17,9.17,0,0,1,1.38,2.81l6,17.51,5.71-16.29a26.89,26.89,0,0,1,1.23-3.1,3.57,3.57,0,0,1,1.16-1.51,3.19,3.19,0,0,1,1.73-.39,3,3,0,0,1,1.55.43,2.92,2.92,0,0,1,1.15,1.16,3.1,3.1,0,0,1,.4,1.53c-.07.34-.18.8-.34,1.41a17,17,0,0,1-.57,1.85l-9.28,24.29a28.21,28.21,0,0,1-2.35,5,7.7,7.7,0,0,1-3,2.8,11.21,11.21,0,0,1-5.1,1,12.45,12.45,0,0,1-4.69-.67,2.48,2.48,0,0,1-1.56-2.48,2.43,2.43,0,0,1,.74-1.89,3.23,3.23,0,0,1,2.2-.66,4.2,4.2,0,0,1,1.12.15,5.07,5.07,0,0,0,1.18.16,4.1,4.1,0,0,0,1.92-.37,3.32,3.32,0,0,0,1.27-1.26A20.06,20.06,0,0,0,346.25,133.69Z" fill="#fecd38"/><path d="M246.41,93.77v20a37,37,0,0,1-.22,4.43,14.07,14.07,0,0,1-1,3.7,10,10,0,0,1-4.3,4.92,14.22,14.22,0,0,1-7.3,1.75,15.11,15.11,0,0,1-6.48-1.22,9.53,9.53,0,0,1-4.18-4,14.65,14.65,0,0,1-1.36-3.36,14.07,14.07,0,0,1-.52-3.63,3.68,3.68,0,0,1,1-2.79,3.63,3.63,0,0,1,2.6-1,3,3,0,0,1,2.32.88,6.12,6.12,0,0,1,1.2,2.77,24.62,24.62,0,0,0,.89,3.2,4.7,4.7,0,0,0,1.49,2.06,4.5,4.5,0,0,0,3,.86q5.13,0,5.13-7.53V93.77a5.21,5.21,0,0,1,1-3.52,3.54,3.54,0,0,1,2.8-1.17,3.67,3.67,0,0,1,2.86,1.17A5.16,5.16,0,0,1,246.41,93.77Z" fill="#fc636f"/><path d="M274.17,115.87H260.25a9.54,9.54,0,0,0,1,4.28,6.55,6.55,0,0,0,6,3.73,8.49,8.49,0,0,0,2.33-.3,7.86,7.86,0,0,0,2.05-.94,15.18,15.18,0,0,0,1.82-1.37c.56-.49,1.28-1.15,2.17-2a2.33,2.33,0,0,1,1.56-.47,2.56,2.56,0,0,1,1.77.6,2.14,2.14,0,0,1,.68,1.69,4.57,4.57,0,0,1-.76,2.26,8.84,8.84,0,0,1-2.28,2.48,12.85,12.85,0,0,1-3.83,2,16.52,16.52,0,0,1-5.3.78q-6.85,0-10.66-3.91T253,114.08a17.51,17.51,0,0,1,.94-5.85,13,13,0,0,1,2.74-4.63,11.83,11.83,0,0,1,4.43-3,15.81,15.81,0,0,1,5.84-1,13.86,13.86,0,0,1,7.15,1.76,11.55,11.55,0,0,1,4.47,4.55A12,12,0,0,1,280,111.6c0,1.79-.52,3-1.54,3.48A9.62,9.62,0,0,1,274.17,115.87Zm-13.92-4h12.91a8.68,8.68,0,0,0-2-5.46,5.93,5.93,0,0,0-4.5-1.81,5.69,5.69,0,0,0-4.36,1.84A9.19,9.19,0,0,0,260.25,111.83Z" fill="#fc636f"/><path d="M308.94,119.29a8.24,8.24,0,0,1-5.67,8.22,19,19,0,0,1-6.81,1.08,16.63,16.63,0,0,1-6.57-1.17,9.54,9.54,0,0,1-4-2.93,5.89,5.89,0,0,1-1.3-3.53,2.73,2.73,0,0,1,.83-2,2.85,2.85,0,0,1,2.11-.83,2.48,2.48,0,0,1,1.72.54,6.23,6.23,0,0,1,1.15,1.54A7.71,7.71,0,0,0,293,123a7.83,7.83,0,0,0,4.15.94,6,6,0,0,0,3.51-1,2.68,2.68,0,0,0,1.37-2.18,2.94,2.94,0,0,0-1.42-2.73,17.69,17.69,0,0,0-4.68-1.65,37.91,37.91,0,0,1-6-1.91,9.79,9.79,0,0,1-3.69-2.65,6.06,6.06,0,0,1-1.38-4,7.08,7.08,0,0,1,1.28-4,8.74,8.74,0,0,1,3.76-3,14.35,14.35,0,0,1,6-1.14,19.3,19.3,0,0,1,5,.58,12.39,12.39,0,0,1,3.68,1.53,7.69,7.69,0,0,1,2.24,2.14,4.21,4.21,0,0,1,.77,2.29,2.64,2.64,0,0,1-.82,2,3.25,3.25,0,0,1-2.33.78,2.87,2.87,0,0,1-1.87-.62,12.31,12.31,0,0,1-1.76-1.88,6.56,6.56,0,0,0-1.9-1.67,6.08,6.08,0,0,0-3-.62,5.8,5.8,0,0,0-3.21.82,2.39,2.39,0,0,0-1.27,2,2.2,2.2,0,0,0,.94,1.84,7.59,7.59,0,0,0,2.52,1.19c1.06.31,2.52.69,4.38,1.15a23.33,23.33,0,0,1,5.41,1.92,9,9,0,0,1,3.18,2.65A5.89,5.89,0,0,1,308.94,119.29Z" fill="#fc636f"/><path d="M337.87,119.29a8.69,8.69,0,0,1-1.43,5,8.78,8.78,0,0,1-4.24,3.18,19,19,0,0,1-6.81,1.08,16.67,16.67,0,0,1-6.57-1.17,9.61,9.61,0,0,1-4-2.93,5.89,5.89,0,0,1-1.3-3.53,2.77,2.77,0,0,1,.83-2,2.85,2.85,0,0,1,2.11-.83,2.48,2.48,0,0,1,1.72.54,6.23,6.23,0,0,1,1.15,1.54,7.71,7.71,0,0,0,2.62,2.84,7.86,7.86,0,0,0,4.16.94,6,6,0,0,0,3.5-1,2.68,2.68,0,0,0,1.37-2.18,2.94,2.94,0,0,0-1.42-2.73,17.69,17.69,0,0,0-4.68-1.65,37.91,37.91,0,0,1-6-1.91,9.79,9.79,0,0,1-3.69-2.65,6.06,6.06,0,0,1-1.38-4,7.15,7.15,0,0,1,1.28-4,8.74,8.74,0,0,1,3.76-3,14.39,14.39,0,0,1,6-1.14,19.43,19.43,0,0,1,5,.58,12.44,12.44,0,0,1,3.67,1.53,7.69,7.69,0,0,1,2.24,2.14,4.13,4.13,0,0,1,.77,2.29,2.64,2.64,0,0,1-.82,2,3.25,3.25,0,0,1-2.33.78,2.87,2.87,0,0,1-1.87-.62,12.32,12.32,0,0,1-1.75-1.88,6.6,6.6,0,0,0-1.91-1.67,6.08,6.08,0,0,0-3-.62,5.79,5.79,0,0,0-3.2.82,2.38,2.38,0,0,0-1.28,2,2.2,2.2,0,0,0,.94,1.84,7.55,7.55,0,0,0,2.53,1.19c1.05.31,2.51.69,4.37,1.15a23.33,23.33,0,0,1,5.41,1.92,9,9,0,0,1,3.18,2.65A5.89,5.89,0,0,1,337.87,119.29Z" fill="#fc636f"/><path d="M350.46,129.48l.65-1.59-8.75-22a8.26,8.26,0,0,1-.81-2.76,3.27,3.27,0,0,1,.47-1.7,3.6,3.6,0,0,1,3-1.72,2.82,2.82,0,0,1,2.32,1,9.11,9.11,0,0,1,1.38,2.8l6,17.52,5.71-16.29a28.3,28.3,0,0,1,1.22-3.1,3.69,3.69,0,0,1,1.16-1.52,3.24,3.24,0,0,1,1.73-.39,3.16,3.16,0,0,1,1.56.43,3.09,3.09,0,0,1,1.14,1.16,3.14,3.14,0,0,1,.41,1.54c-.07.33-.19.8-.34,1.41s-.35,1.22-.58,1.85l-9.28,24.29a28.84,28.84,0,0,1-2.34,5,7.72,7.72,0,0,1-3,2.8,11.05,11.05,0,0,1-5.09,1,12.38,12.38,0,0,1-4.69-.68,2.46,2.46,0,0,1-1.57-2.47,2.41,2.41,0,0,1,.74-1.89,3.19,3.19,0,0,1,2.21-.67,3.89,3.89,0,0,1,1.12.16,5.59,5.59,0,0,0,1.17.16,4.27,4.27,0,0,0,1.93-.37,3.3,3.3,0,0,0,1.26-1.26A17.81,17.81,0,0,0,350.46,129.48Z" fill="#fc636f"/></g></g></svg>