<svg xmlns="http://www.w3.org/2000/svg" height="511pt" version="1.1" viewBox="-146 1 511 511.99998" width="511pt">
<g id="surface1">
<path d="M 65.707031 69.089844 C 65.707031 93.472656 85.472656 113.238281 109.855469 113.238281 C 134.238281 113.238281 154.003906 93.472656 154.003906 69.089844 C 154.003906 38.472656 135.917969 12.089844 109.855469 0 C 83.792969 12.089844 65.707031 38.472656 65.707031 69.089844 Z M 65.707031 69.089844 " style=" stroke:none;fill-rule:nonzero;fill:rgb(99.607843%,80.392157%,21.960784%);fill-opacity:1;" />
<path d="M 109.855469 177.679688 C 105.585938 177.679688 102.128906 174.21875 102.128906 169.953125 L 102.128906 65.742188 C 102.128906 61.476562 105.585938 58.015625 109.855469 58.015625 C 114.121094 58.015625 117.582031 61.476562 117.582031 65.742188 L 117.582031 169.953125 C 117.582031 174.21875 114.121094 177.679688 109.855469 177.679688 Z M 109.855469 177.679688 " style=" stroke:none;fill-rule:nonzero;fill:rgb(22.745098%,28.235294%,29.019608%);fill-opacity:1;" />
<path d="M 8.140625 180.585938 L 8.140625 491.804688 C 8.140625 502.957031 17.183594 512 28.335938 512 L 191.371094 512 C 202.527344 512 211.566406 502.957031 211.566406 491.804688 L 211.566406 180.585938 Z M 8.140625 180.585938 " style=" stroke:none;fill-rule:nonzero;fill:rgb(93.72549%,92.941176%,93.333333%);fill-opacity:1;" />
<path d="M 39.046875 491.804688 L 39.046875 180.585938 L 8.140625 180.585938 L 8.140625 491.804688 C 8.140625 502.957031 17.183594 512 28.335938 512 L 59.242188 512 C 48.089844 512 39.046875 502.957031 39.046875 491.804688 Z M 39.046875 491.804688 " style=" stroke:none;fill-rule:nonzero;fill:rgb(83.137255%,83.137255%,83.137255%);fill-opacity:1;" />
<path d="M 185.417969 146.558594 L 34.289062 146.558594 C 15.628906 146.558594 0.5 161.6875 0.5 180.347656 L 0.5 251.9375 C 0.5 264.015625 10.292969 273.808594 22.371094 273.808594 C 34.449219 273.808594 44.242188 264.015625 44.242188 251.9375 L 44.242188 220.640625 C 44.242188 208.558594 54.035156 198.769531 66.113281 198.769531 C 78.191406 198.769531 87.984375 208.558594 87.984375 220.640625 L 87.984375 347.640625 C 87.984375 359.71875 97.777344 369.507812 109.855469 369.507812 C 121.933594 369.507812 131.726562 359.71875 131.726562 347.640625 L 131.726562 220.640625 C 131.726562 208.558594 141.515625 198.769531 153.597656 198.769531 C 165.675781 198.769531 175.46875 208.558594 175.46875 220.640625 L 175.46875 283.835938 C 175.46875 295.914062 185.257812 305.707031 197.335938 305.707031 C 209.417969 305.707031 219.207031 295.914062 219.207031 283.835938 L 219.207031 180.347656 C 219.210938 161.6875 204.082031 146.558594 185.417969 146.558594 Z M 185.417969 146.558594 " style=" stroke:none;fill-rule:nonzero;fill:rgb(100%,40%,40.784314%);fill-opacity:1;" />
<path d="M 31.40625 251.9375 L 31.40625 180.347656 C 31.40625 161.6875 46.535156 146.558594 65.195312 146.558594 L 34.289062 146.558594 C 15.628906 146.558594 0.5 161.6875 0.5 180.347656 L 0.5 251.9375 C 0.5 264.015625 10.292969 273.808594 22.371094 273.808594 C 28.40625 273.808594 33.867188 271.363281 37.824219 267.414062 C 33.859375 263.453125 31.40625 257.980469 31.40625 251.9375 Z M 31.40625 251.9375 " style=" stroke:none;fill-rule:nonzero;fill:rgb(100%,30.196078%,30.980392%);fill-opacity:1;" />
<path d="M 49.996094 435.441406 C 45.730469 435.441406 42.269531 431.980469 42.269531 427.714844 L 42.269531 416.882812 C 42.269531 412.613281 45.730469 409.15625 49.996094 409.15625 C 54.265625 409.15625 57.722656 412.613281 57.722656 416.882812 L 57.722656 427.714844 C 57.722656 431.980469 54.265625 435.441406 49.996094 435.441406 Z M 49.996094 435.441406 " style=" stroke:none;fill-rule:nonzero;fill:rgb(22.745098%,28.235294%,29.019608%);fill-opacity:1;" />
<path d="M 169.710938 435.441406 C 165.445312 435.441406 161.984375 431.980469 161.984375 427.714844 L 161.984375 416.882812 C 161.984375 412.613281 165.445312 409.15625 169.710938 409.15625 C 173.980469 409.15625 177.4375 412.613281 177.4375 416.882812 L 177.4375 427.714844 C 177.4375 431.980469 173.980469 435.441406 169.710938 435.441406 Z M 169.710938 435.441406 " style=" stroke:none;fill-rule:nonzero;fill:rgb(22.745098%,28.235294%,29.019608%);fill-opacity:1;" />
<path d="M 109.855469 441.222656 C 101.867188 441.222656 94.363281 437.878906 89.261719 432.046875 C 86.457031 428.832031 86.78125 423.953125 89.996094 421.144531 C 93.210938 418.335938 98.089844 418.664062 100.898438 421.875 C 103.0625 424.351562 106.328125 425.773438 109.855469 425.773438 C 113.382812 425.773438 116.648438 424.351562 118.8125 421.875 C 121.621094 418.664062 126.5 418.335938 129.714844 421.144531 C 132.925781 423.953125 133.253906 428.832031 130.445312 432.046875 C 125.347656 437.878906 117.84375 441.222656 109.855469 441.222656 Z M 109.855469 441.222656 " style=" stroke:none;fill-rule:nonzero;fill:rgb(22.745098%,28.235294%,29.019608%);fill-opacity:1;" />
</g>
</svg>