<svg xmlns="http://www.w3.org/2000/svg" xmlns:xlink="http://www.w3.org/1999/xlink" viewBox="0 0 46.3 73.8"><defs><clipPath id="clip-path"><rect width="46.3" height="46.3" rx="23.15" ry="23.15" fill="#fff"/></clipPath></defs><title>candle-off</title><g id="圖層_2" data-name="圖層 2"><g id="圖層_2-2" data-name="圖層 2"><rect width="46.3" height="46.3" rx="23.15" ry="23.15" fill="#fff"/><g clip-path="url(#clip-path)"><g id="surface1"><path d="M22.13,27.81V19.18c0-.33.38-.61.9-.65s1.14.25,1.14.63v8.66c0,.38-.52.68-1.14.63S22.13,28.13,22.13,27.81Z" fill="#3a484a"/><path d="M9.35,28.8V71.06a2.74,2.74,0,0,0,2.74,2.74H34.21A2.74,2.74,0,0,0,37,71.06V28.8Z" fill="#706f6f"/><path d="M13.57,71.06V28.8H9.35V71.06a2.74,2.74,0,0,0,2.74,2.74h4.23A2.75,2.75,0,0,1,13.57,71.06Z" fill="#706f6f"/><path d="M33.42,24.18H11.34a3.06,3.06,0,0,0-3.07,3.07V39a2,2,0,0,0,.8,1.63c2.47,1.85,5.18.15,5.18-2.18V34.34a3,3,0,1,1,6,0V51.46a3,3,0,0,0,2.82,3,2.92,2.92,0,0,0,3-2.92V34.34a3,3,0,1,1,6,0v8.44a3,3,0,1,0,6,.06v-14A4.6,4.6,0,0,0,33.42,24.18Z" fill="#4d4d4d"/><path d="M12.48,38.48V28.76a4.59,4.59,0,0,1,4.61-4.58H11.33a3.06,3.06,0,0,0-3.06,3.06V39A2,2,0,0,0,9,40.62a3.2,3.2,0,0,0,4.33,0A2.92,2.92,0,0,1,12.48,38.48Z" fill="#4d4d4d"/><path d="M14,62.32V61a1,1,0,0,1,1-1.06,1,1,0,0,1,1,1v1.43a1,1,0,0,1-1,1A1,1,0,0,1,14,62.32Z" fill="#3a484a"/><path d="M30.29,62.32V61a1,1,0,0,1,1-1.06,1,1,0,0,1,1,1v1.43a1,1,0,0,1-1,1A1,1,0,0,1,30.29,62.32Z" fill="#3a484a"/><path d="M23.18,64.22A3.7,3.7,0,0,1,20.39,63,1,1,0,1,1,22,61.59a1.57,1.57,0,0,0,1.21.53,1.61,1.61,0,0,0,1.22-.53A1,1,0,1,1,26,63,3.72,3.72,0,0,1,23.18,64.22Z" fill="#3a484a"/></g></g></g></g></svg>