<svg xmlns="http://www.w3.org/2000/svg" xmlns:xlink="http://www.w3.org/1999/xlink" viewBox="0 0 46 74"><defs><clipPath id="clip-path"><rect width="46" height="46" rx="23" ry="23" fill="#fff"/></clipPath></defs><title>candle-top</title><g id="圖層_2" data-name="圖層 2"><g id="圖層_2-2" data-name="圖層 2"><rect width="46" height="46" rx="23" ry="23" fill="#fff"/><g clip-path="url(#clip-path)"><g id="surface1"><path d="M17.19,13.76a6,6,0,0,0,12,0,10.32,10.32,0,0,0-6-9.37A10.34,10.34,0,0,0,17.19,13.76Z" fill="#fecd38"/><path d="M22,27.29V13.46a1,1,0,0,1,.88-1,1,1,0,0,1,1.12,1V27.31a1,1,0,0,1-1.12,1A1,1,0,0,1,22,27.29Z" fill="#3a484a"/><path d="M9,29V71.26A2.74,2.74,0,0,0,11.74,74H34.26A2.74,2.74,0,0,0,37,71.26V29Z" fill="#efedee"/><path d="M13,71.26V29H9V71.26A2.74,2.74,0,0,0,11.74,74h3.87A2.68,2.68,0,0,1,13,71.26Z" fill="#d4d4d4"/><path d="M33.36,24H11.07A3.08,3.08,0,0,0,8,27.07V38.85a2,2,0,0,0,.73,1.56c2.49,2,5.27.24,5.27-2.11V34.42a3,3,0,1,1,6-.08V51.48a3,3,0,1,0,6,.06V34.42a3,3,0,1,1,6-.08v8.18a3,3,0,1,0,6,.11V28.58A4.61,4.61,0,0,0,33.36,24Z" fill="#ff6668"/><path d="M12,38.3V28.58A4.48,4.48,0,0,1,16.37,24h-5.3A3.06,3.06,0,0,0,8,27.07V38.89a2,2,0,0,0,.68,1.52,2.92,2.92,0,0,0,4.15,0A3.05,3.05,0,0,1,12,38.3Z" fill="#ff4d4f"/><path d="M14,62.34V61a1,1,0,0,1,1-1,1,1,0,0,1,1,1v1.4a1,1,0,0,1-1,1A1,1,0,0,1,14,62.34Z" fill="#3a484a"/><path d="M30,62.34V61a1,1,0,0,1,1-1,1,1,0,0,1,1,1v1.4a1,1,0,0,1-1,1A1,1,0,0,1,30,62.34Z" fill="#3a484a"/><path d="M23.18,64.25A3.69,3.69,0,0,1,20.39,63,1,1,0,1,1,22,61.63a1.57,1.57,0,0,0,1.21.53,1.61,1.61,0,0,0,1.22-.53A1,1,0,1,1,26,63,3.72,3.72,0,0,1,23.18,64.25Z" fill="#3a484a"/></g></g></g></g></svg>