<svg xmlns="http://www.w3.org/2000/svg" viewBox="0 0 80.51 182.74"><title>plant</title><g id="圖層_2" data-name="圖層 2"><g id="圖層_5" data-name="圖層 5"><polygon points="21.15 118.74 47.15 182.74 17.15 182.74 28.15 154.74 8.15 118.74 19.15 38.74 8.15 10.74 38.15 38.74 29.18 80.94 57.65 92.74 63.37 96.74 36.65 96.74 27.8 87.45 21.15 118.74" fill="#fbb03b"/><polygon points="20.65 50.74 12.65 106.74 18.65 102.74 20.65 50.74" fill="#bc8031"/><polygon points="12.65 16.74 20.65 36.74 23.65 36.74 12.65 16.74" fill="#bc8031"/><polygon points="29.65 158.74 21.65 181.74 27.65 177.74 29.65 158.74" fill="#bc8031"/><ellipse cx="40.65" cy="45.74" rx="11" ry="8.5" fill="#20c462"/><polyline points="43.23 50.28 42.69 51.12 42.23 50.29" fill="none" stroke="#72e8a2" stroke-linecap="round" stroke-miterlimit="10" stroke-width="0.5"/><polyline points="44.23 46.28 43.69 47.12 43.23 46.29" fill="none" stroke="#72e8a2" stroke-linecap="round" stroke-miterlimit="10" stroke-width="0.5"/><polyline points="40.23 50.28 39.69 51.12 39.23 50.29" fill="none" stroke="#72e8a2" stroke-linecap="round" stroke-miterlimit="10" stroke-width="0.5"/><polyline points="37.23 41.28 36.69 42.12 36.23 41.29" fill="none" stroke="#72e8a2" stroke-linecap="round" stroke-miterlimit="10" stroke-width="0.5"/><polyline points="34.23 46.28 33.69 47.12 33.23 46.29" fill="none" stroke="#72e8a2" stroke-linecap="round" stroke-miterlimit="10" stroke-width="0.5"/><polyline points="40.23 45.28 39.69 46.12 39.23 45.29" fill="none" stroke="#72e8a2" stroke-linecap="round" stroke-miterlimit="10" stroke-width="0.5"/><path d="M49.65,47.24c-.37-8.5-9-8-9-8" fill="none" stroke="#72e8a2" stroke-linecap="round" stroke-miterlimit="10" stroke-width="2"/><ellipse cx="32.57" cy="25.15" rx="11" ry="8.5" transform="translate(-6.3 38.63) rotate(-56.81)" fill="#20c462"/><polyline points="37.77 25.47 38.18 26.38 37.23 26.31" fill="none" stroke="#72e8a2" stroke-linecap="round" stroke-miterlimit="10" stroke-width="0.5"/><polyline points="34.97 22.45 35.38 23.36 34.44 23.29" fill="none" stroke="#72e8a2" stroke-linecap="round" stroke-miterlimit="10" stroke-width="0.5"/><polyline points="36.13 27.98 36.53 28.89 35.59 28.82" fill="none" stroke="#72e8a2" stroke-linecap="round" stroke-miterlimit="10" stroke-width="0.5"/><polyline points="26.95 25.57 27.36 26.48 26.42 26.41" fill="none" stroke="#72e8a2" stroke-linecap="round" stroke-miterlimit="10" stroke-width="0.5"/><polyline points="29.5 30.82 29.9 31.72 28.96 31.65" fill="none" stroke="#72e8a2" stroke-linecap="round" stroke-miterlimit="10" stroke-width="0.5"/><polyline points="31.94 25.25 32.35 26.16 31.41 26.09" fill="none" stroke="#72e8a2" stroke-linecap="round" stroke-miterlimit="10" stroke-width="0.5"/><path d="M38.75,18.44c-7.32-4.34-11.62,3.15-11.62,3.15" fill="none" stroke="#72e8a2" stroke-linecap="round" stroke-miterlimit="10" stroke-width="2"/><ellipse cx="9.76" cy="26.72" rx="8.5" ry="11" transform="translate(-15.69 14) rotate(-43.38)" fill="#20c462"/><polyline points="11.29 21.74 12.26 21.55 11.98 22.45" fill="none" stroke="#72e8a2" stroke-linecap="round" stroke-miterlimit="10" stroke-width="0.5"/><polyline points="7.69 23.76 8.67 23.57 8.38 24.47" fill="none" stroke="#72e8a2" stroke-linecap="round" stroke-miterlimit="10" stroke-width="0.5"/><polyline points="13.35 23.92 14.32 23.73 14.04 24.63" fill="none" stroke="#72e8a2" stroke-linecap="round" stroke-miterlimit="10" stroke-width="0.5"/><polyline points="8.87 32.28 9.84 32.09 9.56 32.99" fill="none" stroke="#72e8a2" stroke-linecap="round" stroke-miterlimit="10" stroke-width="0.5"/><polyline points="14.56 31.02 15.54 30.84 15.25 31.74" fill="none" stroke="#72e8a2" stroke-linecap="round" stroke-miterlimit="10" stroke-width="0.5"/><polyline points="9.71 27.35 10.69 27.16 10.4 28.07" fill="none" stroke="#72e8a2" stroke-linecap="round" stroke-miterlimit="10" stroke-width="0.5"/><path d="M4.67,19.15c-5.92,6.11.37,12,.37,12" fill="none" stroke="#72e8a2" stroke-linecap="round" stroke-miterlimit="10" stroke-width="2"/><ellipse cx="22.97" cy="15.77" rx="8.5" ry="11" transform="translate(-0.82 1.27) rotate(-3.11)" fill="#20c462"/><polyline points="27.36 12.95 28.22 13.44 27.42 13.94" fill="none" stroke="#72e8a2" stroke-linecap="round" stroke-miterlimit="10" stroke-width="0.5"/><polyline points="23.31 12.17 24.17 12.66 23.37 13.16" fill="none" stroke="#72e8a2" stroke-linecap="round" stroke-miterlimit="10" stroke-width="0.5"/><polyline points="27.52 15.95 28.38 16.43 27.58 16.94" fill="none" stroke="#72e8a2" stroke-linecap="round" stroke-miterlimit="10" stroke-width="0.5"/><polyline points="18.69 19.43 19.56 19.92 18.76 20.42" fill="none" stroke="#72e8a2" stroke-linecap="round" stroke-miterlimit="10" stroke-width="0.5"/><polyline points="23.85 22.15 24.71 22.64 23.91 23.14" fill="none" stroke="#72e8a2" stroke-linecap="round" stroke-miterlimit="10" stroke-width="0.5"/><polyline points="22.53 16.22 23.39 16.71 22.59 17.21" fill="none" stroke="#72e8a2" stroke-linecap="round" stroke-miterlimit="10" stroke-width="0.5"/><path d="M24,6.7c-8.47.83-7.5,9.42-7.5,9.42" fill="none" stroke="#72e8a2" stroke-linecap="round" stroke-miterlimit="10" stroke-width="2"/><ellipse cx="10.97" cy="10.77" rx="8.5" ry="11" transform="translate(-2.91 4.16) rotate(-19)" fill="#20c462"/><polyline points="14.42 6.86 15.38 7.09 14.75 7.79" fill="none" stroke="#72e8a2" stroke-linecap="round" stroke-miterlimit="10" stroke-width="0.5"/><polyline points="10.31 7.21 11.28 7.45 10.64 8.15" fill="none" stroke="#72e8a2" stroke-linecap="round" stroke-miterlimit="10" stroke-width="0.5"/><polyline points="15.39 9.69 16.36 9.93 15.73 10.63" fill="none" stroke="#72e8a2" stroke-linecap="round" stroke-miterlimit="10" stroke-width="0.5"/><polyline points="7.86 15.46 8.83 15.69 8.2 16.39" fill="none" stroke="#72e8a2" stroke-linecap="round" stroke-miterlimit="10" stroke-width="0.5"/><polyline points="13.56 16.67 14.53 16.9 13.9 17.6" fill="none" stroke="#72e8a2" stroke-linecap="round" stroke-miterlimit="10" stroke-width="0.5"/><polyline points="10.67 11.32 11.63 11.55 11 12.26" fill="none" stroke="#72e8a2" stroke-linecap="round" stroke-miterlimit="10" stroke-width="0.5"/><path d="M9.46,1.77C1.54,4.89,4.82,12.88,4.82,12.88" fill="none" stroke="#72e8a2" stroke-linecap="round" stroke-miterlimit="10" stroke-width="2"/><polygon points="58.16 95.61 35.06 91.81 39.14 95.01 58.16 95.61" fill="#bc8031"/><polyline points="19.23 42.59 18.89 43.52 18.26 42.82" fill="none" stroke="#72e8a2" stroke-linecap="round" stroke-miterlimit="10" stroke-width="0.5"/><polyline points="16.3 43.25 15.97 44.19 15.34 43.49" fill="none" stroke="#72e8a2" stroke-linecap="round" stroke-miterlimit="10" stroke-width="0.5"/><polyline points="11.37 35.15 11.04 36.08 10.41 35.38" fill="none" stroke="#72e8a2" stroke-linecap="round" stroke-miterlimit="10" stroke-width="0.5"/><ellipse cx="12.71" cy="45.74" rx="8.5" ry="11" transform="translate(-34.02 54.09) rotate(-84.61)" fill="#20c462"/><polyline points="10.57 40.98 11.19 40.2 11.56 41.06" fill="none" stroke="#72e8a2" stroke-linecap="round" stroke-miterlimit="10" stroke-width="0.5"/><polyline points="9.2 44.87 9.81 44.09 10.19 44.95" fill="none" stroke="#72e8a2" stroke-linecap="round" stroke-miterlimit="10" stroke-width="0.5"/><polyline points="13.56 41.26 14.17 40.48 14.55 41.35" fill="none" stroke="#72e8a2" stroke-linecap="round" stroke-miterlimit="10" stroke-width="0.5"/><polyline points="15.7 50.51 16.31 49.72 16.69 50.59" fill="none" stroke="#72e8a2" stroke-linecap="round" stroke-miterlimit="10" stroke-width="0.5"/><polyline points="19.16 45.81 19.77 45.03 20.15 45.89" fill="none" stroke="#72e8a2" stroke-linecap="round" stroke-miterlimit="10" stroke-width="0.5"/><polyline points="13.09 46.24 13.7 45.46 14.08 46.32" fill="none" stroke="#72e8a2" stroke-linecap="round" stroke-miterlimit="10" stroke-width="0.5"/><path d="M3.89,43.4c-.43,8.5,8.21,8.81,8.21,8.81" fill="none" stroke="#72e8a2" stroke-linecap="round" stroke-miterlimit="10" stroke-width="2"/><ellipse cx="13.65" cy="58.24" rx="8.5" ry="11" transform="translate(-44.71 71.39) rotate(-89.5)" fill="#20c462"/><polyline points="11.12 53.69 11.66 52.86 12.11 53.69" fill="none" stroke="#72e8a2" stroke-linecap="round" stroke-miterlimit="10" stroke-width="0.5"/><polyline points="10.09 57.68 10.63 56.85 11.08 57.68" fill="none" stroke="#72e8a2" stroke-linecap="round" stroke-miterlimit="10" stroke-width="0.5"/><polyline points="14.12 53.71 14.66 52.88 15.11 53.71" fill="none" stroke="#72e8a2" stroke-linecap="round" stroke-miterlimit="10" stroke-width="0.5"/><polyline points="17.04 62.74 17.59 61.91 18.04 62.74" fill="none" stroke="#72e8a2" stroke-linecap="round" stroke-miterlimit="10" stroke-width="0.5"/><polyline points="20.08 57.77 20.63 56.93 21.08 57.76" fill="none" stroke="#72e8a2" stroke-linecap="round" stroke-miterlimit="10" stroke-width="0.5"/><polyline points="14.08 58.71 14.62 57.88 15.07 58.71" fill="none" stroke="#72e8a2" stroke-linecap="round" stroke-miterlimit="10" stroke-width="0.5"/><path d="M4.67,56.67c.3,8.5,8.93,8.07,8.93,8.07" fill="none" stroke="#72e8a2" stroke-linecap="round" stroke-miterlimit="10" stroke-width="2"/><ellipse cx="40.65" cy="36.74" rx="11" ry="8.5" fill="#20c462"/><polyline points="43.23 41.28 42.69 42.12 42.23 41.29" fill="none" stroke="#72e8a2" stroke-linecap="round" stroke-miterlimit="10" stroke-width="0.5"/><polyline points="44.23 37.28 43.69 38.12 43.23 37.29" fill="none" stroke="#72e8a2" stroke-linecap="round" stroke-miterlimit="10" stroke-width="0.5"/><polyline points="40.23 41.28 39.69 42.12 39.23 41.29" fill="none" stroke="#72e8a2" stroke-linecap="round" stroke-miterlimit="10" stroke-width="0.5"/><polyline points="37.23 32.28 36.69 33.12 36.23 32.29" fill="none" stroke="#72e8a2" stroke-linecap="round" stroke-miterlimit="10" stroke-width="0.5"/><polyline points="34.23 37.28 33.69 38.12 33.23 37.29" fill="none" stroke="#72e8a2" stroke-linecap="round" stroke-miterlimit="10" stroke-width="0.5"/><polyline points="40.23 36.28 39.69 37.12 39.23 36.29" fill="none" stroke="#72e8a2" stroke-linecap="round" stroke-miterlimit="10" stroke-width="0.5"/><path d="M49.65,38.24c-.37-8.5-9-8-9-8" fill="none" stroke="#72e8a2" stroke-linecap="round" stroke-miterlimit="10" stroke-width="2"/><ellipse cx="39.74" cy="76.73" rx="11" ry="8.5" transform="translate(-24.12 18.51) rotate(-20.27)" fill="#20c462"/><polyline points="43.73 80.09 43.51 81.06 42.8 80.45" fill="none" stroke="#72e8a2" stroke-linecap="round" stroke-miterlimit="10" stroke-width="0.5"/><polyline points="43.28 75.99 43.06 76.96 42.35 76.35" fill="none" stroke="#72e8a2" stroke-linecap="round" stroke-miterlimit="10" stroke-width="0.5"/><polyline points="40.91 81.13 40.7 82.1 39.98 81.48" fill="none" stroke="#72e8a2" stroke-linecap="round" stroke-miterlimit="10" stroke-width="0.5"/><polyline points="34.98 73.73 34.77 74.7 34.05 74.08" fill="none" stroke="#72e8a2" stroke-linecap="round" stroke-miterlimit="10" stroke-width="0.5"/><polyline points="33.9 79.46 33.68 80.43 32.97 79.81" fill="none" stroke="#72e8a2" stroke-linecap="round" stroke-miterlimit="10" stroke-width="0.5"/><polyline points="39.18 76.44 38.97 77.41 38.25 76.8" fill="none" stroke="#72e8a2" stroke-linecap="round" stroke-miterlimit="10" stroke-width="0.5"/><path d="M48.7,75c-3.29-7.85-11.21-4.39-11.21-4.39" fill="none" stroke="#72e8a2" stroke-linecap="round" stroke-miterlimit="10" stroke-width="2"/><ellipse cx="54.65" cy="81.74" rx="11" ry="8.5" fill="#20c462"/><polyline points="57.23 86.28 56.69 87.11 56.23 86.29" fill="none" stroke="#72e8a2" stroke-linecap="round" stroke-miterlimit="10" stroke-width="0.5"/><polyline points="58.23 82.28 57.69 83.11 57.23 82.29" fill="none" stroke="#72e8a2" stroke-linecap="round" stroke-miterlimit="10" stroke-width="0.5"/><polyline points="54.23 86.28 53.69 87.11 53.23 86.29" fill="none" stroke="#72e8a2" stroke-linecap="round" stroke-miterlimit="10" stroke-width="0.5"/><polyline points="51.23 77.28 50.69 78.11 50.23 77.29" fill="none" stroke="#72e8a2" stroke-linecap="round" stroke-miterlimit="10" stroke-width="0.5"/><polyline points="48.23 82.28 47.69 83.11 47.23 82.29" fill="none" stroke="#72e8a2" stroke-linecap="round" stroke-miterlimit="10" stroke-width="0.5"/><polyline points="54.23 81.28 53.69 82.11 53.23 81.29" fill="none" stroke="#72e8a2" stroke-linecap="round" stroke-miterlimit="10" stroke-width="0.5"/><path d="M63.65,83.24c-.37-8.5-9-8-9-8" fill="none" stroke="#72e8a2" stroke-linecap="round" stroke-miterlimit="10" stroke-width="2"/><ellipse cx="36.55" cy="97.27" rx="11" ry="8.5" transform="translate(-35.9 22.78) rotate(-23.61)" fill="#20c462"/><polyline points="32.38 94.14 32.54 93.16 33.28 93.73" fill="none" stroke="#72e8a2" stroke-linecap="round" stroke-miterlimit="10" stroke-width="0.5"/><polyline points="33.06 98.21 33.22 97.22 33.97 97.8" fill="none" stroke="#72e8a2" stroke-linecap="round" stroke-miterlimit="10" stroke-width="0.5"/><polyline points="35.13 92.94 35.28 91.96 36.03 92.53" fill="none" stroke="#72e8a2" stroke-linecap="round" stroke-miterlimit="10" stroke-width="0.5"/><polyline points="41.48 99.98 41.64 99 42.39 99.58" fill="none" stroke="#72e8a2" stroke-linecap="round" stroke-miterlimit="10" stroke-width="0.5"/><polyline points="42.23 94.2 42.38 93.22 43.13 93.79" fill="none" stroke="#72e8a2" stroke-linecap="round" stroke-miterlimit="10" stroke-width="0.5"/><polyline points="37.13 97.52 37.29 96.54 38.04 97.11" fill="none" stroke="#72e8a2" stroke-linecap="round" stroke-miterlimit="10" stroke-width="0.5"/><path d="M27.71,99.5c3.74,7.63,11.45,3.72,11.45,3.72" fill="none" stroke="#72e8a2" stroke-linecap="round" stroke-miterlimit="10" stroke-width="2"/><ellipse cx="48.55" cy="102.27" rx="11" ry="8.5" transform="translate(-62.04 78.09) rotate(-52.27)" fill="#20c462"/><polyline points="43.39 101.53 43.06 100.59 43.99 100.73" fill="none" stroke="#72e8a2" stroke-linecap="round" stroke-miterlimit="10" stroke-width="0.5"/><polyline points="45.94 104.76 45.61 103.83 46.54 103.97" fill="none" stroke="#72e8a2" stroke-linecap="round" stroke-miterlimit="10" stroke-width="0.5"/><polyline points="45.23 99.15 44.89 98.22 45.83 98.36" fill="none" stroke="#72e8a2" stroke-linecap="round" stroke-miterlimit="10" stroke-width="0.5"/><polyline points="54.18 102.29 53.85 101.35 54.78 101.49" fill="none" stroke="#72e8a2" stroke-linecap="round" stroke-miterlimit="10" stroke-width="0.5"/><polyline points="52.06 96.86 51.73 95.92 52.66 96.06" fill="none" stroke="#72e8a2" stroke-linecap="round" stroke-miterlimit="10" stroke-width="0.5"/><polyline points="49.18 102.21 48.85 101.28 49.78 101.42" fill="none" stroke="#72e8a2" stroke-linecap="round" stroke-miterlimit="10" stroke-width="0.5"/><path d="M41.86,108.47c7,4.9,11.83-2.23,11.83-2.23" fill="none" stroke="#72e8a2" stroke-linecap="round" stroke-miterlimit="10" stroke-width="2"/><ellipse cx="69.55" cy="96.27" rx="8.5" ry="11" transform="translate(-35.5 151.66) rotate(-81.96)" fill="#20c462"/><polyline points="71.47 101.11 70.82 101.87 70.48 100.99" fill="none" stroke="#72e8a2" stroke-linecap="round" stroke-miterlimit="10" stroke-width="0.5"/><polyline points="73.02 97.29 72.37 98.05 72.03 97.17" fill="none" stroke="#72e8a2" stroke-linecap="round" stroke-miterlimit="10" stroke-width="0.5"/><polyline points="68.5 100.69 67.85 101.45 67.51 100.57" fill="none" stroke="#72e8a2" stroke-linecap="round" stroke-miterlimit="10" stroke-width="0.5"/><polyline points="66.78 91.36 66.14 92.12 65.8 91.24" fill="none" stroke="#72e8a2" stroke-linecap="round" stroke-miterlimit="10" stroke-width="0.5"/><polyline points="63.12 95.89 62.47 96.65 62.13 95.77" fill="none" stroke="#72e8a2" stroke-linecap="round" stroke-miterlimit="10" stroke-width="0.5"/><polyline points="69.2 95.74 68.55 96.5 68.21 95.62" fill="none" stroke="#72e8a2" stroke-linecap="round" stroke-miterlimit="10" stroke-width="0.5"/><path d="M78.25,99c.82-8.47-7.79-9.18-7.79-9.18" fill="none" stroke="#72e8a2" stroke-linecap="round" stroke-miterlimit="10" stroke-width="2"/></g></g></svg>