<svg xmlns="http://www.w3.org/2000/svg" viewBox="0 0 436.57 232.32"><title>資產 4</title><g id="圖層_2" data-name="圖層 2"><g id="圖層_2-2" data-name="圖層 2"><path d="M436.82,13.69q0,3.55-2.44,10.27l-.37,1q-5.38,14.29-5.87,15.4-5,10.26-11,10.39a15.93,15.93,0,0,1,3.3,10A17.47,17.47,0,0,1,416,72.24a26.22,26.22,0,0,1-10.14,7.21,21.3,21.3,0,0,1-8.19,1.47q-11.13,0-16.38-9.53a10.31,10.31,0,0,1-1.59-5.26,6.84,6.84,0,0,1,1.83-4.64q-21.51-6.24-21.51-25.92,0-17.35,14.18-27.26Q385.73.25,404.8.25A94.6,94.6,0,0,1,415.19.8q5,.54,9.9,1.52Q436.82,4.9,436.82,13.69ZM433.4,15.4a6.4,6.4,0,0,0,.12-1.59q0-6.22-9-8.31-4.89-1-9.66-1.53a84.72,84.72,0,0,0-9.53-.55q-26.54,0-37.16,15.89a27.76,27.76,0,0,0-4.89,16.14q0,13.2,11.73,19.8a32.64,32.64,0,0,0,14.67,4.4,25.42,25.42,0,0,0,3.24.06c1.26,0,2.67-.14,4.22-.3,1.87-.16,3.42-.29,4.64-.37s2.16-.12,2.81-.12c-.81.81-3.46,1.59-7.94,2.32-1.8.33-3.39.55-4.77.67s-2.61.23-3.67.31c-3.42.16-5.13,1.47-5.13,3.91a7.06,7.06,0,0,0,1.22,3.67,15,15,0,0,0,11.37,7.7,19.57,19.57,0,0,0,15.52-4.77q7.1-6,5.87-14.42-1.71-10-12.22-9.41c-2.37.16-4.4.32-6.12.48s-3.09.33-4.15.49a18.43,18.43,0,0,1,7.21-2.44,81.94,81.94,0,0,1,13,0,25.65,25.65,0,0,0,2.93.06,4.34,4.34,0,0,0,2-.55,4.7,4.7,0,0,0,1.52-1.41,26.67,26.67,0,0,0,1.53-2.38,84.82,84.82,0,0,0,4-8.19q2.07-4.77,4.27-11c.33-1.06.7-2.28,1.11-3.67S432.91,17.28,433.4,15.4Z" transform="translate(-0.25 -0.25)" fill="#fff"/><path d="M433.52,13.81a6.4,6.4,0,0,1-.12,1.59q-.73,2.82-1.34,4.89c-.41,1.39-.78,2.61-1.11,3.67q-2.19,6.24-4.27,11a84.82,84.82,0,0,1-4,8.19,26.67,26.67,0,0,1-1.53,2.38,4.7,4.7,0,0,1-1.52,1.41,4.34,4.34,0,0,1-2,.55,25.65,25.65,0,0,1-2.93-.06,81.94,81.94,0,0,0-13,0,18.43,18.43,0,0,0-7.21,2.44c1.06-.16,2.44-.32,4.15-.49s3.75-.32,6.12-.48q10.5-.61,12.22,9.41,1.22,8.43-5.87,14.42a19.57,19.57,0,0,1-15.52,4.77,15,15,0,0,1-11.37-7.7A7.06,7.06,0,0,1,383,66.13c0-2.44,1.71-3.75,5.13-3.91,1.06-.08,2.28-.18,3.67-.31s3-.34,4.77-.67c4.48-.73,7.13-1.51,7.94-2.32-.65,0-1.59,0-2.81.12s-2.77.21-4.64.37c-1.55.16-3,.26-4.22.3a25.42,25.42,0,0,1-3.24-.06A32.64,32.64,0,0,1,375,55.25q-11.73-6.6-11.73-19.8a27.76,27.76,0,0,1,4.89-16.14Q378.77,3.43,405.29,3.42a84.72,84.72,0,0,1,9.53.55q4.77.55,9.66,1.53Q433.53,7.58,433.52,13.81Z" transform="translate(-0.25 -0.25)" fill="#ff009d"/><path d="M359.36,17.63a60.73,60.73,0,0,1,.37,16.62,33,33,0,0,1-12.35,22.61,56.28,56.28,0,0,1-4.77,3.67c-1,.65-1.89,1.24-2.75,1.77a20.55,20.55,0,0,1-2.38,1.29c.41.89.87,1.81,1.41,2.75s1.11,1.89,1.77,2.87a5.84,5.84,0,0,1,.36,6q-1.71,3.54-6.47,6a43.34,43.34,0,0,1-4.22,1.71,27.17,27.17,0,0,1-4.46,1.1,30.66,30.66,0,0,1-4.4.37q-8,0-10.64-8.19a21.57,21.57,0,0,1-.91-3.3,27.86,27.86,0,0,1-.43-2.94,16.52,16.52,0,0,1-4.28.49q-6.72,0-12.71-5.87Q283.46,56,280.4,40a52.5,52.5,0,0,1-1.23-11q0-8.79,5.14-13.56,3.9-3.79,13.57-6.48a15.47,15.47,0,0,1,4.89-.86,7.93,7.93,0,0,1,7.45,4.77q2.32-6.6,7.34-9A21.56,21.56,0,0,1,325.5,2q9.28-.73,14.3-.73c1.3,0,2.47,0,3.49.06s1.93.1,2.75.18q8.18,1,11,6.6a25.16,25.16,0,0,1,1.22,3.67A51.3,51.3,0,0,1,359.36,17.63Zm-2.93,16.13a60.68,60.68,0,0,0-.37-15.65,46.25,46.25,0,0,0-1.1-5.62,20.39,20.39,0,0,0-1.22-3.42q-2.21-3.68-7.95-4.28-3.06-.24-8.07-.18t-12,.67A19,19,0,0,0,319,6.75q-7.33,3.66-7.33,16.87a34.79,34.79,0,0,0,3.91,16.86,23.63,23.63,0,0,1-6.48-11.12A57.57,57.57,0,0,1,308,16.53q-1-3.92-3.18-4.77-1.95-.86-6,.24-8.55,2.57-13.32,6.85-3.06,2.92-3.06,10.27a54,54,0,0,0,1.1,10.26q2.94,14.55,11.25,22.86,4.51,4.27,8.8,4.89a20.48,20.48,0,0,0,7.95-1.1q3.9-1.22,6.23-1.83c1.55-.41,2.57-.69,3.06-.86q-.5,1.09-3.79,2.69l-4.4,2.08a16.8,16.8,0,0,0,3.05,10.51c1.39,1.63,3.5,2.45,6.36,2.45a23.76,23.76,0,0,0,11.85-3.43q4.53-2.56,4.53-5.13a2.22,2.22,0,0,0-.49-1.59c-2.61-3.91-4-6.52-4-7.82A1.85,1.85,0,0,1,335.16,61l3.66-1.83A31.27,31.27,0,0,0,342,56.92c1.06-.85,2.16-1.73,3.3-2.62A31.13,31.13,0,0,0,356.43,33.76Z" transform="translate(-0.25 -0.25)" fill="#fff"/><path d="M356.06,18.11a60.68,60.68,0,0,1,.37,15.65A31.13,31.13,0,0,1,345.3,54.3c-1.14.89-2.24,1.77-3.3,2.62a31.27,31.27,0,0,1-3.18,2.27L335.16,61a1.85,1.85,0,0,0-1.23,2.08c.09,1.3,1.43,3.91,4,7.82a2.22,2.22,0,0,1,.49,1.59q0,2.56-4.53,5.13a23.76,23.76,0,0,1-11.85,3.43c-2.86,0-5-.82-6.36-2.45a16.8,16.8,0,0,1-3.05-10.51l4.4-2.08q3.3-1.59,3.79-2.69c-.49.17-1.51.45-3.06.86s-3.63,1-6.23,1.83a20.48,20.48,0,0,1-7.95,1.1q-4.28-.61-8.8-4.89-8.31-8.31-11.25-22.86a54,54,0,0,1-1.1-10.26q0-7.34,3.06-10.27,4.77-4.28,13.32-6.85,4-1.1,6-.24,2.21.86,3.18,4.77a57.57,57.57,0,0,0,1.1,12.83,23.63,23.63,0,0,0,6.48,11.12,34.79,34.79,0,0,1-3.91-16.86q0-13.21,7.33-16.87a19,19,0,0,1,6.72-1.47q7-.62,12-.67t8.07.18q5.74.62,7.95,4.28A20.39,20.39,0,0,1,355,12.49,46.25,46.25,0,0,1,356.06,18.11Z" transform="translate(-0.25 -0.25)" fill="#ff009d"/><path d="M278.57,51.36Q280,75.81,264.39,75.81a19.8,19.8,0,0,1-12-4.4,9.32,9.32,0,0,1-1.47,3.3,11.93,11.93,0,0,1-6.85,5l-.73.12-1.1.13q-14.06,0-20.66-19.2A62,62,0,0,1,218,40.61c0-.69,0-1.38.05-2.06q4.16-11.14,4.67-18A39.37,39.37,0,0,1,235.06,6a22.37,22.37,0,0,1,12.83-4.4,17,17,0,0,1,9.42,2.69,41.42,41.42,0,0,1,9.29,10.51A74.57,74.57,0,0,1,278.57,51.36ZM273.68,66q2.2-5,1.59-14.55a73,73,0,0,0-11.36-34.95,34.59,34.59,0,0,0-8.32-9.42,14.79,14.79,0,0,0-7.7-2.2q-6,0-12.46,5a29.19,29.19,0,0,0-5,4.71,37.61,37.61,0,0,0-3.91,5.68,40.58,40.58,0,0,0-5.25,20.3,56.1,56.1,0,0,0,3.42,19.06q6.11,17.49,18.46,17,5.61-1.83,6.23-6.6.12-1.45-1.47-4.52-3.66-6.6-3.66-7.7,6.35,9.28,13.08,12.84a13.69,13.69,0,0,0,5.74,1.71Q270.75,73.13,273.68,66Z" transform="translate(-0.25 -0.25)" fill="#fff"/><path d="M275.27,51.48Q275.89,61,273.68,66q-2.93,7.09-10.63,6.36a13.69,13.69,0,0,1-5.74-1.71q-6.74-3.56-13.08-12.84,0,1.09,3.66,7.7,1.59,3.06,1.47,4.52-.62,4.77-6.23,6.6-12.36.5-18.46-17a56.1,56.1,0,0,1-3.42-19.06,40.58,40.58,0,0,1,5.25-20.3,37.61,37.61,0,0,1,3.91-5.68,29.19,29.19,0,0,1,5-4.71q6.47-5,12.46-5a14.79,14.79,0,0,1,7.7,2.2,34.59,34.59,0,0,1,8.32,9.42A73,73,0,0,1,275.27,51.48ZM250,57.23c.16,0,0-.2-.37-.61-1.06-1.14-2.09-2.16-3.11-3.06a23.31,23.31,0,0,0-3.12-2.32l3.55-5a2,2,0,0,0-.25-1.41,1.15,1.15,0,0,0-1.22-.43c-1.47.17-2.93,2-4.4,5.51q-3.92-1.84-5.5-1.72c-1.8.09-2.41.78-1.84,2.08a2.08,2.08,0,0,0,1.84,1.1l4.52,1.1a29.82,29.82,0,0,0-1.1,8.07v.61c.81-2.12,1.91-4.72,3.3-7.82,1.63.73,3,1.4,4.16,2l2.81,1.53Z" transform="translate(-0.25 -0.25)" fill="#ff009d"/><path d="M249.6,56.62c.41.41.53.61.37.61l-.73-.37-2.81-1.53c-1.15-.61-2.53-1.28-4.16-2-1.39,3.1-2.49,5.7-3.3,7.82v-.61a29.82,29.82,0,0,1,1.1-8.07l-4.52-1.1a2.08,2.08,0,0,1-1.84-1.1c-.57-1.3,0-2,1.84-2.08q1.59-.12,5.5,1.72c1.47-3.51,2.93-5.34,4.4-5.51a1.15,1.15,0,0,1,1.22.43,2,2,0,0,1,.25,1.41l-3.55,5a23.31,23.31,0,0,1,3.12,2.32C247.51,54.46,248.54,55.48,249.6,56.62Z" transform="translate(-0.25 -0.25)" fill="#fff"/><path d="M222.71,17.14a20.41,20.41,0,0,1,0,3.39l-.26.52a44.07,44.07,0,0,0-3,8.25l-1.64-.45q2.06-7.28,1.69-11.47a9.7,9.7,0,0,0-2.93-7q-2-2-7-3.42A61.54,61.54,0,0,0,196.07,4.3a42.88,42.88,0,0,0-13.57.37q-4.65,1-7.95,8.43a34.26,34.26,0,0,0-2,5.56q-.73,2.88-1.23,6.06a40.52,40.52,0,0,1,0-4.41c.08-1.54.25-3.17.49-4.88a13.77,13.77,0,0,0-8.43-2.94q-5-.24-7.82,5.26a23.33,23.33,0,0,0-1.84,5.62q-1,3.79-1.52,6.48c-.37,1.79-.64,3.22-.8,4.28a52.16,52.16,0,0,1,.86-11.61,22.84,22.84,0,0,0-5.87-3.92,30.53,30.53,0,0,0-3.73-1.89,16.9,16.9,0,0,0-2.87-.92,13.12,13.12,0,0,0-5.87.49,39.86,39.86,0,0,0-5.68,3.85,32.26,32.26,0,0,0-4.71,4.71q-5.13,6.11-4.77,12.1a25.2,25.2,0,0,0,1.53,6.75l-1.5.54a13.21,13.21,0,0,0-3.1-5.17,18.86,18.86,0,0,1-.23-1.88q-.6-7.93,6.6-15.52a59.19,59.19,0,0,1,5.26-4.89,34.92,34.92,0,0,1,5-3.42l.61-.25a13,13,0,0,1,4.77-.73q6.36,0,14.18,5.62,3.3-8.8,11.37-8.8a16.9,16.9,0,0,1,8.19,2.2l2.69-4.28a12.81,12.81,0,0,1,7-5.37A27.07,27.07,0,0,1,190,.64a73.63,73.63,0,0,1,20.53,3.17Q222,7.24,222.71,17.14Z" transform="translate(-0.25 -0.25)" fill="#fff"/><path d="M222.41,21.05l.26-.52q-.53,6.88-4.67,18a43.67,43.67,0,0,1,4.41-17.5Z" transform="translate(-0.25 -0.25)" fill="#fff"/><path d="M219.41,17.38q.36,4.19-1.69,11.47A123,123,0,0,1,213.55,41q-8.69,22.62-21.15,30.68a17.63,17.63,0,0,1-9.66,3.3,8.85,8.85,0,0,1-7.82-4.27l-1-1.59v-.25h-.12q-1.71-2.69-2.93-4.83c-.82-1.42-1.51-2.7-2.08-3.85a62.24,62.24,0,0,0,4,10,8.6,8.6,0,0,1-.61,1.59c-.24.48-.49,1-.73,1.58q-3.3,7.45-11.86,7.58-2.94.12-8.43-2.07-15.66-6.74-26.16-25.19a64.66,64.66,0,0,1-4.71-10,25.2,25.2,0,0,1-1.53-6.75q-.36-6,4.77-12.1a32.26,32.26,0,0,1,4.71-4.71A39.86,39.86,0,0,1,134,16.28a13.12,13.12,0,0,1,5.87-.49,16.9,16.9,0,0,1,2.87.92,30.53,30.53,0,0,1,3.73,1.89,22.84,22.84,0,0,1,5.87,3.92,52.16,52.16,0,0,0-.86,11.61c.16-1.06.43-2.49.8-4.28s.87-4,1.52-6.48a23.33,23.33,0,0,1,1.84-5.62q2.8-5.5,7.82-5.26a13.77,13.77,0,0,1,8.43,2.94c-.24,1.71-.41,3.34-.49,4.88a40.52,40.52,0,0,0,0,4.41q.49-3.18,1.23-6.06a34.26,34.26,0,0,1,2-5.56q3.3-7.45,7.95-8.43a42.88,42.88,0,0,1,13.57-.37A61.54,61.54,0,0,1,209.51,7q5,1.47,7,3.42A9.7,9.7,0,0,1,219.41,17.38Z" transform="translate(-0.25 -0.25)" fill="#ff009d"/><path d="M219.36,29.3A44.41,44.41,0,0,0,218,38.55c-.43,1.18-.9,2.39-1.4,3.64q-8.92,23.48-22.37,32.15-6.1,3.91-11.49,3.91a12.07,12.07,0,0,1-8.31-3.17q-4.4,9.17-14.67,9.16h-.49q-8.06,0-19.8-8.43-9.66-7.09-17.23-20.41c-.71-1.28-1.36-2.51-1.95-3.71,0-.45-.08-.88-.13-1.31a27.71,27.71,0,0,0-1.32-6.15l1.5-.54a64.66,64.66,0,0,0,4.71,10q10.52,18.46,26.16,25.19,5.49,2.19,8.43,2.07,8.55-.12,11.86-7.58c.24-.56.49-1.1.73-1.58a8.6,8.6,0,0,0,.61-1.59,62.24,62.24,0,0,1-4-10c.57,1.15,1.26,2.43,2.08,3.85s1.79,3,2.93,4.83h.12v.25l1,1.59A8.85,8.85,0,0,0,182.74,75a17.63,17.63,0,0,0,9.66-3.3Q204.87,63.58,213.55,41a123,123,0,0,0,4.17-12.12Z" transform="translate(-0.25 -0.25)" fill="#fff"/><path d="M120.47,55c0,1.63,0,3.38-.06,5.26q-.73,14.29-22,18.09c-2.28.4-4.38.71-6.29.91a48.1,48.1,0,0,1-5.2.31Q68.58,79.6,61.85,60c-.27-.7-.56-1.6-.88-2.71q.11-2.78-.09-6a78.15,78.15,0,0,0-1.21-9.76l1.14-.23c0,.11,0,.23.07.34.73,3.66,1.32,6.54,1.77,8.61s.75,3.41.92,4q5.61,23.1,25.54,22c.9-.08,2.06-.21,3.49-.37s3.15-.45,5.19-.85q12.1-2.08,16.5-7.22a12.83,12.83,0,0,0,2.81-7.7c.08-1.63.11-3.21.07-4.76s-.15-3.06-.31-4.53a23.87,23.87,0,0,0-1.39-5.93l1.66-.59a58.78,58.78,0,0,0,3.16,7.34C120.37,52.76,120.43,53.87,120.47,55Z" transform="translate(-0.25 -0.25)" fill="#fff"/><path d="M120.16,50.38c0,.43.09.86.13,1.31a58.78,58.78,0,0,1-3.16-7.34,31.81,31.81,0,0,1-1.39-5.29,13.21,13.21,0,0,1,3.1,5.17A27.71,27.71,0,0,1,120.16,50.38Z" transform="translate(-0.25 -0.25)" fill="#fff"/><path d="M117.17,55.4c0,1.55,0,3.13-.07,4.76a12.83,12.83,0,0,1-2.81,7.7q-4.4,5.15-16.5,7.22c-2,.4-3.77.69-5.19.85s-2.59.29-3.49.37q-19.92,1.1-25.54-22c-.17-.57-.47-1.9-.92-4s-1-5-1.77-8.61c0-.11-.05-.23-.07-.34q-.8-4.08-1.22-7.3a47.8,47.8,0,0,1-.42-5.81q0-7.08,3-10.51,5.5-6.36,19-10.64a30.91,30.91,0,0,1,8.07-1.34A9.85,9.85,0,0,1,96.08,8q2,1.71,1.83,10.63l-.49,35.94A21.2,21.2,0,0,0,99,49.65c.45-2.12.88-4.72,1.29-7.82q7-2.2,8.31-2.2,4.78,0,6.92,5.31a23.87,23.87,0,0,1,1.39,5.93C117,52.34,117.12,53.85,117.17,55.4Z" transform="translate(-0.25 -0.25)" fill="#ff009d"/><path d="M117.13,44.35l-1.66.59q-2.13-5.31-6.92-5.31-1.35,0-8.31,2.2c-.41,3.1-.84,5.7-1.29,7.82a21.2,21.2,0,0,1-1.53,4.89l.49-35.94Q98,9.69,96.08,8a9.85,9.85,0,0,0-6.84-2.2,30.91,30.91,0,0,0-8.07,1.34q-13.45,4.29-19,10.64-3.06,3.42-3,10.51a47.8,47.8,0,0,0,.42,5.81q.42,3.23,1.22,7.3l-1.14.23a73.27,73.27,0,0,0-3.8-13.22v-.24a19.64,19.64,0,0,1,3.91-12.47Q65.89,8.45,80.31,4.06a29.13,29.13,0,0,1,8.93-1.59q7,0,9.77,4.28,2.2,3.54,2.2,11v.85q0,4.16-.06,9T101,38.16l.37-.12a32.18,32.18,0,0,1,7.21-1.71,9.82,9.82,0,0,1,7.19,2.73A31.81,31.81,0,0,0,117.13,44.35Z" transform="translate(-0.25 -0.25)" fill="#fff"/><path d="M60.88,51.36q.19,3.2.09,6c-.7-2.54-1.51-6.15-2.42-10.86l-.85-4.15a76.84,76.84,0,0,1-1.83-13.94,73.27,73.27,0,0,1,3.8,13.22A78.15,78.15,0,0,1,60.88,51.36Z" transform="translate(-0.25 -0.25)" fill="#fff"/><path d="M58.55,46.47c.91,4.71,1.72,8.32,2.42,10.86Q60.31,75.81,46.7,75.81a19.81,19.81,0,0,1-12-4.4,9,9,0,0,1-1.47,3.3,11.91,11.91,0,0,1-6.84,5l-.74.12-1.1.13Q10.51,80,3.92,60.77A61.76,61.76,0,0,1,.25,40.61,44.16,44.16,0,0,1,4.71,21.05,39.47,39.47,0,0,1,17.36,6,22.43,22.43,0,0,1,30.2,1.61,17,17,0,0,1,39.61,4.3,41.23,41.23,0,0,1,48.9,14.81a75.72,75.72,0,0,1,7,13.57A76.84,76.84,0,0,0,57.7,42.32ZM56,66c1.47-3.34,2-8.19,1.59-14.55A73.16,73.16,0,0,0,46.21,16.53,34.39,34.39,0,0,0,37.9,7.11a14.82,14.82,0,0,0-7.7-2.2q-6,0-12.47,5a28.76,28.76,0,0,0-5,4.71,36.89,36.89,0,0,0-3.91,5.68,40.48,40.48,0,0,0-5.26,20.3A56.1,56.1,0,0,0,7,59.67q6.12,17.49,18.46,17,5.63-1.83,6.23-6.6c.08-1-.4-2.48-1.46-4.52q-3.68-6.6-3.67-7.7,6.36,9.28,13.08,12.84a13.69,13.69,0,0,0,5.74,1.71Q53.06,73.13,56,66Z" transform="translate(-0.25 -0.25)" fill="#fff"/><path d="M57.58,51.48C58,57.84,57.46,62.69,56,66q-2.94,7.09-10.64,6.36a13.69,13.69,0,0,1-5.74-1.71q-6.72-3.56-13.08-12.84,0,1.09,3.67,7.7c1.06,2,1.54,3.55,1.46,4.52q-.6,4.77-6.23,6.6-12.34.5-18.46-17A56.1,56.1,0,0,1,3.55,40.61a40.48,40.48,0,0,1,5.26-20.3,36.89,36.89,0,0,1,3.91-5.68,28.76,28.76,0,0,1,5-4.71q6.48-5,12.47-5a14.82,14.82,0,0,1,7.7,2.2,34.39,34.39,0,0,1,8.31,9.42A73.16,73.16,0,0,1,57.58,51.48Zm-25.3,5.75c.16,0,0-.2-.37-.61q-1.59-1.71-3.12-3.06a23.31,23.31,0,0,0-3.12-2.32l3.55-5A2,2,0,0,0,29,44.82a1.18,1.18,0,0,0-1.23-.43c-1.46.17-2.93,2-4.4,5.51q-3.92-1.84-5.5-1.72c-1.79.09-2.4.78-1.83,2.08a2.05,2.05,0,0,0,1.83,1.1l4.52,1.1a29.82,29.82,0,0,0-1.1,8.07v.61c.82-2.12,1.92-4.72,3.3-7.82q2.45,1.09,4.16,2l2.81,1.53Z" transform="translate(-0.25 -0.25)" fill="#ff009d"/><path d="M31.91,56.62c.41.41.53.61.37.61l-.74-.37-2.81-1.53q-1.71-.91-4.16-2c-1.38,3.1-2.48,5.7-3.3,7.82v-.61a29.82,29.82,0,0,1,1.1-8.07l-4.52-1.1A2.05,2.05,0,0,1,16,50.26c-.57-1.3,0-2,1.83-2.08q1.59-.12,5.5,1.72c1.47-3.51,2.94-5.34,4.4-5.51a1.18,1.18,0,0,1,1.23.43,2,2,0,0,1,.24,1.41l-3.55,5a23.31,23.31,0,0,1,3.12,2.32Q30.32,54.91,31.91,56.62Z" transform="translate(-0.25 -0.25)" fill="#fff"/><path d="M405.55,174.28a101,101,0,0,1-3,24.74q-6.45,25.39-31,25.39-18.42,0-30-14.73-9.72-12.51-12.75-32.11c-.18-1-.31-2.06-.4-3s-.13-1.89-.13-2.76c0-4.64,1.37-8.19,4.07-10.66,2.12-1.84,5.63-3.54,10.53-5.13q9.87-3.15,14.35-2.89a7.29,7.29,0,0,1,4.73,1.85,31.28,31.28,0,0,1,6.19,9.87c1,2.44,1.85,4.58,2.63,6.37s1.41,3.31,1.85,4.53l.79,1.85a35.57,35.57,0,0,0-2.76-12.1q-2.91-7.23-2.63-8.95,1.17-4.47,10.12-7.9a40.76,40.76,0,0,1,6.91-1.84,25,25,0,0,1,6.25-.26Q405.54,147.7,405.55,174.28Z" transform="translate(-0.25 -0.25)" fill="#00d9ff"/><path d="M337.92,211q-7-8.93-10.56-22.31c.11-1.53.16-3.09.16-4.66a46.52,46.52,0,0,0-2.61-15.9,15.59,15.59,0,0,1,5.12-9.76c2.37-2.1,6.26-4,11.71-5.66,7.11-2.19,12.1-3.23,15-3.16a12.59,12.59,0,0,1,8.68,4q2.49-4.86,11.31-8.28a35.34,35.34,0,0,1,12.37-2.38q20,0,20,31.45a102,102,0,0,1-3.16,25.66q-6.69,25.78-30.12,27.76a11.33,11.33,0,0,1-1.85.12h-2.5Q350.8,227.82,337.92,211Zm-5.67-49.87c-2.7,2.47-4.07,6-4.07,10.66,0,.87.05,1.81.13,2.76s.22,2,.4,3q3,19.6,12.75,32.11,11.6,14.74,30,14.73,24.61,0,31-25.39a101,101,0,0,0,3-24.74q0-26.57-14.34-27.76a25,25,0,0,0-6.25.26,40.76,40.76,0,0,0-6.91,1.84q-8.94,3.44-10.12,7.9-.29,1.72,2.63,8.95a35.57,35.57,0,0,1,2.76,12.1l-.79-1.85c-.44-1.22-1.06-2.74-1.85-4.53s-1.66-3.93-2.63-6.37a31.28,31.28,0,0,0-6.19-9.87,7.29,7.29,0,0,0-4.73-1.85q-4.47-.27-14.35,2.89C337.88,157.58,334.37,159.28,332.25,161.12Z" transform="translate(-0.25 -0.25)" fill="#fff"/><path d="M324.91,168.12a46.52,46.52,0,0,1,2.61,15.9c0,1.57,0,3.13-.16,4.66a95.29,95.29,0,0,1-2.2-10.58c-.1-.53-.2-1.1-.27-1.7a35.73,35.73,0,0,1-.26-4.62A23.74,23.74,0,0,1,324.91,168.12Z" transform="translate(-0.25 -0.25)" fill="#fff"/><path d="M323.47,176.57A50.88,50.88,0,0,1,324,184q0,15.79-7.5,27.76-8.82,14-23.82,13.43-16.46-.56-28-15.4a39,39,0,0,1-8.82-24.73,46.08,46.08,0,0,1,.43-6.43q2.22-16,15.88-25.55a32.56,32.56,0,0,1,18.55-5.79,31.77,31.77,0,0,1,21.58,8.17,34.92,34.92,0,0,1,10.8,19.06C323.21,175.18,323.36,175.85,323.47,176.57Zm-23.05,35.87-.38-.66a30.77,30.77,0,0,0-3-3.69c-1-1-2-2-3-2.89,3-3.51,4.46-5.43,4.46-5.79q-.12-1.32-1.32-1.32c-1.66.09-3.51,1.9-5.52,5.39-2.45-1.66-4.35-2.54-5.66-2.63-1.48-.16-2.23.28-2.23,1.34,0,.34,0,.56.13.63a2.09,2.09,0,0,0,1.71,1.59,28.07,28.07,0,0,1,3,1l1.78.73a20.84,20.84,0,0,0-1.45,4.08,33.76,33.76,0,0,0-.78,4.33,1.46,1.46,0,0,0-.15.66l.4-.79,4.21-7.11,7,4.61Z" transform="translate(-0.25 -0.25)" fill="#00d9ff"/><path d="M297.08,208.09a30.77,30.77,0,0,1,3,3.69l.38.66-.78-.53-7-4.61-4.21,7.11-.4.79a1.46,1.46,0,0,1,.15-.66,33.76,33.76,0,0,1,.78-4.33,20.84,20.84,0,0,1,1.45-4.08l-1.78-.73a28.07,28.07,0,0,0-3-1,2.09,2.09,0,0,1-1.71-1.59c-.1-.07-.13-.29-.13-.63,0-1.06.75-1.5,2.23-1.34,1.31.09,3.21,1,5.66,2.63,2-3.49,3.86-5.3,5.52-5.39q1.2,0,1.32,1.32c0,.36-1.48,2.28-4.46,5.79C295.07,206.08,296.05,207.05,297.08,208.09Z" transform="translate(-0.25 -0.25)" fill="#fff"/><path d="M290.68,147.31a32.56,32.56,0,0,0-18.55,5.79q-13.65,9.57-15.88,25.55l-.16,0a59.59,59.59,0,0,0,.22-12.5,40,40,0,0,1,13.85-15.92,36,36,0,0,1,44.48,2.64,38.29,38.29,0,0,1,10.27,15.27,23.74,23.74,0,0,0-.28,3.66,35.73,35.73,0,0,0,.26,4.62l-1.42.17c-.11-.72-.26-1.39-.41-2a34.92,34.92,0,0,0-10.8-19.06A31.77,31.77,0,0,0,290.68,147.31Z" transform="translate(-0.25 -0.25)" fill="#fff"/><path d="M264.64,209.81q11.57,14.88,28,15.4,15,.53,23.82-13.43Q324,199.8,324,184a50.88,50.88,0,0,0-.51-7.45l1.42-.17c.07.6.17,1.17.27,1.7a95.29,95.29,0,0,0,2.2,10.58,53.44,53.44,0,0,1-5.48,20.47q-9.74,19.59-28,19.61h-1.31q-17.36,0-30.65-16.85a41.65,41.65,0,0,1-9.24-21.18,38.06,38.06,0,0,0,3.45-12.1l.16,0a46.08,46.08,0,0,0-.43,6.43A39,39,0,0,0,264.64,209.81Z" transform="translate(-0.25 -0.25)" fill="#fff"/><path d="M256.31,166.13a59.59,59.59,0,0,1-.22,12.5,38.06,38.06,0,0,1-3.45,12.1,38.88,38.88,0,0,1-.37-5.52A46,46,0,0,1,254,172.56,36.48,36.48,0,0,1,256.31,166.13Z" transform="translate(-0.25 -0.25)" fill="#fff"/><path d="M252.14,161.25a64.68,64.68,0,0,1,.39,16.85,33.51,33.51,0,0,1-12,22.11c-1.23.95-2.42,1.9-3.55,2.82a32.3,32.3,0,0,1-3.42,2.43l-3.94,2a2,2,0,0,0-1.32,2.25c.07,1.4,1.54,4.2,4.33,8.42a2.34,2.34,0,0,1,.53,1.7c0,1.85-1.62,3.69-4.86,5.54A25.65,25.65,0,0,1,215.56,229c-3.07,0-5.36-.88-6.84-2.63a18.11,18.11,0,0,1-3.29-11.31l4.74-2.23c2.37-1.15,3.73-2.1,4.07-2.91-.53.19-1.62.5-3.29.94s-3.89,1.09-6.7,2a22.53,22.53,0,0,1-8.56,1.19q-4.6-.66-9.46-5.27-9-9-12.12-24.61a58.69,58.69,0,0,1-1.18-11.06q0-7.89,3.28-11c3.44-3.07,8.21-5.54,14.35-7.39,2.91-.78,5-.87,6.45-.25,1.57.62,2.72,2.32,3.42,5.13a61.89,61.89,0,0,0,1.19,13.82,25.31,25.31,0,0,0,7,12,37.35,37.35,0,0,1-4.23-18.17q0-14.19,7.9-18.14a20.93,20.93,0,0,1,7.24-1.59q7.5-.66,12.9-.72c3.6-.05,6.48,0,8.68.19,4.13.45,7,2,8.55,4.6A21.61,21.61,0,0,1,251,155.2,47.55,47.55,0,0,1,252.14,161.25Z" transform="translate(-0.25 -0.25)" fill="#00d9ff"/><path d="M197.41,217.57q-7.23,0-13.68-6.32-9.73-9.21-13-26.44A56.57,56.57,0,0,1,169.38,173q0-9.47,5.52-14.61c2.81-2.72,7.67-5,14.62-7a16.88,16.88,0,0,1,5.26-.91c3.58,0,6.27,1.72,8,5.14,1.67-4.76,4.3-8,7.9-9.74a22.91,22.91,0,0,1,8.55-2c6.65-.53,11.79-.78,15.39-.78,1.4,0,2.65,0,3.74,0s2.09.11,3,.2q8.83,1.06,11.84,7.11a25.73,25.73,0,0,1,1.32,3.95,53.94,53.94,0,0,1,1.19,6.3c.27,1.87.47,3.66.62,5.41a36.48,36.48,0,0,0-2.32,6.43,46,46,0,0,0-1.72,12.65,38.88,38.88,0,0,0,.37,5.52A35.1,35.1,0,0,1,242.8,203c-2.12,1.76-3.81,3.07-5.13,3.95-1.06.69-2,1.33-3,1.9a22.34,22.34,0,0,1-2.58,1.39c.44,1,1,1.95,1.52,3s1.21,2,1.92,3.09a6.29,6.29,0,0,1,.38,6.45c-1.22,2.54-3.54,4.67-7,6.45a44.94,44.94,0,0,1-4.55,1.82,26.85,26.85,0,0,1-4.81,1.19,30,30,0,0,1-4.73.4q-8.55,0-11.44-8.82a24.13,24.13,0,0,1-1-3.55A26.94,26.94,0,0,1,202,217,18,18,0,0,1,197.41,217.57Zm-23.3-33.42q3.15,15.65,12.12,24.61,4.85,4.61,9.46,5.27a22.53,22.53,0,0,0,8.56-1.19q4.22-1.32,6.7-2c1.67-.44,2.76-.75,3.29-.94-.34.81-1.7,1.76-4.07,2.91l-4.74,2.23a18.11,18.11,0,0,0,3.29,11.31c1.48,1.75,3.77,2.63,6.84,2.63a25.65,25.65,0,0,0,12.77-3.67c3.24-1.85,4.86-3.69,4.86-5.54a2.34,2.34,0,0,0-.53-1.7c-2.79-4.22-4.26-7-4.33-8.42a2,2,0,0,1,1.32-2.25l3.94-2A32.3,32.3,0,0,0,237,203c1.13-.92,2.32-1.87,3.55-2.82a33.51,33.51,0,0,0,12-22.11,64.68,64.68,0,0,0-.39-16.85A47.55,47.55,0,0,0,251,155.2a21.61,21.61,0,0,0-1.31-3.69c-1.57-2.63-4.42-4.15-8.55-4.6-2.2-.17-5.08-.24-8.68-.19s-7.9.28-12.9.72a20.93,20.93,0,0,0-7.24,1.59q-7.89,3.94-7.9,18.14a37.35,37.35,0,0,0,4.23,18.17,25.31,25.31,0,0,1-7-12,61.89,61.89,0,0,1-1.19-13.82c-.7-2.81-1.85-4.51-3.42-5.13-1.41-.62-3.54-.53-6.45.25-6.14,1.85-10.91,4.32-14.35,7.39q-3.28,3.15-3.28,11A58.69,58.69,0,0,0,174.11,184.15Z" transform="translate(-0.25 -0.25)" fill="#fff"/><path d="M392.08,133.58c1.3.93,3.22,1.1,5.74.52,3.82-.91,6.19-2.16,7.09-3.77q8.61.45,8.15,8.29a16.39,16.39,0,0,1-2.41,7.39,19.61,19.61,0,0,1-10.11,8.6,32.65,32.65,0,0,1-13.27,2.72q-19.17,0-30.47-15.24-10.26-14.18-10.11-33.49A51.5,51.5,0,0,1,351,87.26,32.37,32.37,0,0,1,365.24,72.1,41.12,41.12,0,0,1,385.61,67a34.08,34.08,0,0,1,20.13,6.11,31.23,31.23,0,0,1,12,16.52,24.29,24.29,0,0,1,.6,12.52q-1.51,6-11.46,13.57a35.67,35.67,0,0,1-4.38,2.87,49.93,49.93,0,0,1-5.28,2.56q-7.39,3.33-10.26,2.72,2.57,2,8.3.75c1.11-.2,2.26-.45,3.47-.75a30.85,30.85,0,0,0,3.77-1.21c1.31,1,2,2,2,3q0,2.56-5.73,5.73Q393.33,134.23,392.08,133.58Z" transform="translate(-0.25 -0.25)" fill="#7242f0"/><path d="M344.13,101.06q2-5.73,3-10a52.87,52.87,0,0,0,1.36-7.31c0-.17,0-.33,0-.49a37.68,37.68,0,0,1,11.12-12.34,44.78,44.78,0,0,1,25.95-8A37.83,37.83,0,0,1,410.8,72a36.41,36.41,0,0,1,10.1,14.18,28.59,28.59,0,0,1,1.36,17q-2.42,9.21-15.69,17.65a6.56,6.56,0,0,1,2,4.83,3.18,3.18,0,0,1-.15,1.21q9.21,2.42,8.75,11.91a19.36,19.36,0,0,1-4,10.71,27.38,27.38,0,0,1-9,7.85,35.6,35.6,0,0,1-16.89,4.07,40.09,40.09,0,0,1-27.46-10.11q-17.51-14.78-17.19-42.69c0-1,0-1.93.07-2.87.38-1.09.76-2.19,1.13-3.31Zm54.6,30.32q5.73-3.16,5.73-5.73c0-1-.65-2-2-3a30.85,30.85,0,0,1-3.77,1.21c-1.21.3-2.36.55-3.47.75q-5.73,1.22-8.3-.75,2.87.6,10.26-2.72a49.93,49.93,0,0,0,5.28-2.56,35.67,35.67,0,0,0,4.38-2.87q9.94-7.53,11.46-13.57a24.29,24.29,0,0,0-.6-12.52,31.23,31.23,0,0,0-12-16.52A34.08,34.08,0,0,0,385.61,67a41.12,41.12,0,0,0-20.37,5.13A32.37,32.37,0,0,0,351,87.26a51.5,51.5,0,0,0-4.3,21.34q-.15,19.32,10.11,33.49,11.31,15.24,30.47,15.24a32.65,32.65,0,0,0,13.27-2.72,19.61,19.61,0,0,0,10.11-8.6,16.39,16.39,0,0,0,2.41-7.39q.45-7.83-8.15-8.29c-.9,1.61-3.27,2.86-7.09,3.77-2.52.58-4.44.41-5.74-.52Q393.33,134.22,398.73,131.38Z" transform="translate(-0.25 -0.25)" fill="#fff"/><path d="M344.43,75.72a23.09,23.09,0,0,1,0,7.54,65.25,65.25,0,0,1-1.81,9c-.09.32-.18.66-.28,1-.25.86-.53,1.8-.85,2.84-.46,1.46-1,3.14-1.59,5q-9.64,29-21.27,44.65-8.44,11.32-15.83,11.32-8.46,0-23.24-9.36Q259.21,135,250,116.45q-4.65-9.67-5.53-16.37a23.68,23.68,0,0,1-.2-2.94,16.85,16.85,0,0,1,6.79-13.73,86,86,0,0,1,8.44-5.88,62.13,62.13,0,0,1,8.6-4.37,20.29,20.29,0,0,1,8-1.81,13.94,13.94,0,0,1,10.4,4.52q6.64,7.09,6.64,9.81a121.25,121.25,0,0,0-4.67,18.63,77.26,77.26,0,0,0-1.06,15.46q.45-3.17,1.58-7.92t2.79-11.09l5.89-20.82a13.36,13.36,0,0,1,4.82-6.78,11.12,11.12,0,0,1,2.34-1.44c1-.45,2.09-.92,3.4-1.43a54.94,54.94,0,0,1,18.85-3Q342.32,67.27,344.43,75.72Z" transform="translate(-0.25 -0.25)" fill="#7242f0"/><path d="M342.69,105.73a59.19,59.19,0,0,1,1.66-11.83,42.83,42.83,0,0,1,4.19-10.67c0,.16,0,.32,0,.49A52.87,52.87,0,0,1,347.14,91q-1,4.31-3,10l-.31,1.36C343.45,103.54,343.07,104.64,342.69,105.73Z" transform="translate(-0.25 -0.25)" fill="#fff"/><path d="M244.27,97.14a23.68,23.68,0,0,0,.2,2.94l-.72.11a47.83,47.83,0,0,0-2.55-9.79,20.66,20.66,0,0,1,7.29-10.15q16-12.82,27.61-12.83A17.66,17.66,0,0,1,289.22,73a44.46,44.46,0,0,1,4.68,5.58v-.15l.45-.91c1.61-3.32,3.21-5.63,4.83-6.94a31,31,0,0,1,7.69-4.07q8.44-3.31,20.21-3.32,18.56,0,21.27,11.62a23.34,23.34,0,0,1,.38,3.69,36.78,36.78,0,0,1-.19,4.72,42.83,42.83,0,0,0-4.19,10.67l-2-.58c.1-.35.19-.69.28-1a65.25,65.25,0,0,0,1.81-9,23.09,23.09,0,0,0,0-7.54q-2.12-8.44-17.35-8.45a54.94,54.94,0,0,0-18.85,3c-1.31.51-2.44,1-3.4,1.43a11.12,11.12,0,0,0-2.34,1.44,13.36,13.36,0,0,0-4.82,6.78l-5.89,20.82q-1.65,6.33-2.79,11.09t-1.58,7.92a77.26,77.26,0,0,1,1.06-15.46,121.25,121.25,0,0,1,4.67-18.63q0-2.72-6.64-9.81a13.94,13.94,0,0,0-10.4-4.52,20.29,20.29,0,0,0-8,1.81,62.13,62.13,0,0,0-8.6,4.37,86,86,0,0,0-8.44,5.88A16.85,16.85,0,0,0,244.27,97.14Z" transform="translate(-0.25 -0.25)" fill="#fff"/><path d="M244.42,109.21a58.33,58.33,0,0,0-.67-9l.72-.11q.87,6.69,5.53,16.37,9.19,18.55,29.56,31.37,14.79,9.36,23.24,9.36,7.38,0,15.83-11.32,11.63-15.68,21.27-44.65c.61-1.91,1.13-3.59,1.59-5,.32-1,.6-2,.85-2.84l2,.58a59.19,59.19,0,0,0-1.66,11.83q-9.76,28.15-20.74,42.55-4.83,6.63-8.14,9.05a18.24,18.24,0,0,1-11,3.92q-10,0-25.5-10a89.51,89.51,0,0,1-14.86-11.23,76,76,0,0,1-10.63-12.45,90.57,90.57,0,0,1-7.55-13.53C244.37,112.48,244.42,110.86,244.42,109.21Z" transform="translate(-0.25 -0.25)" fill="#fff"/><path d="M243.75,100.19a58.33,58.33,0,0,1,.67,9c0,1.65,0,3.27-.16,4.87a48,48,0,0,1-3.78-12.77,31.63,31.63,0,0,1-.28-4.17,22,22,0,0,1,1-6.74A47.83,47.83,0,0,1,243.75,100.19Z" transform="translate(-0.25 -0.25)" fill="#fff"/><path d="M239.83,101.4q-2.13-15.24-12.91-24.92a36.46,36.46,0,0,0-24.74-9.36,37.19,37.19,0,0,0-21.26,6.64q-18.72,13.13-18.71,36.66a44.54,44.54,0,0,0,.75,8.21l-1.25.24a21.16,21.16,0,0,0-3.57-8.5,53.13,53.13,0,0,1,2-14.29q4.07-15.52,18.55-25.64a41.3,41.3,0,0,1,51,3A43.91,43.91,0,0,1,241.2,90.4a22,22,0,0,0-1,6.74,31.63,31.63,0,0,0,.28,4.17Z" transform="translate(-0.25 -0.25)" fill="#fff"/><path d="M240.35,109.21q0,18.11-8.6,31.83-10.11,16-27.3,15.38-18.85-.6-32.13-17.65A45.53,45.53,0,0,1,163,118.63a44.54,44.54,0,0,1-.75-8.21q0-23.53,18.71-36.66a37.19,37.19,0,0,1,21.26-6.64,36.46,36.46,0,0,1,24.74,9.36q10.79,9.69,12.91,24.92A56.07,56.07,0,0,1,240.35,109.21Zm-27,32.58-.46-.75a33,33,0,0,0-3.39-4.23q-1.74-1.8-3.39-3.32c3.41-4,5.13-6.23,5.13-6.63-.11-1-.61-1.51-1.51-1.51q-2.86.15-6.34,6.18-4.23-2.86-6.49-3c-1.71-.2-2.56.3-2.56,1.5a1.2,1.2,0,0,0,.15.76,2.43,2.43,0,0,0,2,1.81,33.55,33.55,0,0,1,3.4,1.13l2,.83a26.06,26.06,0,0,0-1.66,4.68,40,40,0,0,0-.9,5,1.75,1.75,0,0,0-.15.76l.45-.91,4.83-8.14,8,5.28Z" transform="translate(-0.25 -0.25)" fill="#7242f0"/><path d="M201.88,134.55l-2-.83a33.55,33.55,0,0,0-3.4-1.13,2.43,2.43,0,0,1-2-1.81,1.2,1.2,0,0,1-.15-.76c0-1.2.85-1.7,2.56-1.5q2.26.15,6.49,3,3.47-6,6.34-6.18c.9,0,1.4.5,1.51,1.51,0,.4-1.72,2.61-5.13,6.63q1.65,1.51,3.39,3.32a33,33,0,0,1,3.39,4.23l.46.75-.91-.6-8-5.28-4.83,8.14-.45.91a1.75,1.75,0,0,1,.15-.76,40,40,0,0,1,.9-5A26.06,26.06,0,0,1,201.88,134.55Z" transform="translate(-0.25 -0.25)" fill="#fff"/><path d="M163,118.63a45.53,45.53,0,0,0,9.36,20.14q13.27,17.05,32.13,17.65,17.19.6,27.3-15.38,8.59-13.73,8.6-31.83a56.07,56.07,0,0,0-.52-7.81l.65-.09a48,48,0,0,0,3.78,12.77A61.08,61.08,0,0,1,237.93,138q-11.16,22.47-32.13,22.48h-1.5q-19.92,0-35.15-19.31a51.91,51.91,0,0,1-6.39-10.07c0-.84,0-1.66,0-2.45q-.08-3-.38-5.73c-.16-1.45-.38-2.8-.65-4.07Z" transform="translate(-0.25 -0.25)" fill="#fff"/><path d="M162.74,128.67c0,.79,0,1.61,0,2.45a46.84,46.84,0,0,1-4.62-20.55v-.2a21.16,21.16,0,0,1,3.57,8.5c.27,1.27.49,2.62.65,4.07Q162.66,125.66,162.74,128.67Z" transform="translate(-0.25 -0.25)" fill="#fff"/><path d="M158.14,110.57a46.84,46.84,0,0,0,4.62,20.55c0,1.28,0,2.63-.09,4q-.91,17.65-27.16,22.33-4.22.75-7.76,1.13a61.85,61.85,0,0,1-6.42.38q-22.62,0-30.92-24.14-1.66-4.22-4.07-16.74L85.28,113A91.84,91.84,0,0,1,83,95.48q0-9.2,4.83-15.38,7.53-8.91,25.34-14.33a35.84,35.84,0,0,1,11-2c5.73,0,9.75,1.77,12.07,5.28Q139,73.46,139,82.66v1.06q0,5.13-.07,11.16t-.23,13l.45-.15c4.53-1.41,7.49-2.11,8.9-2.11a11.94,11.94,0,0,1,10.11,4.78Zm.15,13q-1.66-13.87-10.26-13.88-1.65,0-10.25,2.72-.76,5.73-1.59,9.65a25.9,25.9,0,0,1-1.88,6l.6-44.34q.15-11-2.26-13.13c-2-1.81-4.83-2.71-8.45-2.71a37.77,37.77,0,0,0-10,1.66Q97.65,74.82,90.86,82.66q-3.77,4.23-3.77,13a58.33,58.33,0,0,0,.53,7.17c.35,2.76.88,5.91,1.58,9.43q1.36,6.78,2.19,10.63c.55,2.56.93,4.2,1.13,4.9q6.95,28.52,31.53,27.15c1.1-.1,2.54-.25,4.3-.45s3.89-.55,6.41-1.05q14.94-2.57,20.36-8.9c2-2.32,3.17-5.48,3.47-9.51q.15-3,.08-5.88C158.62,127.21,158.49,125.35,158.29,123.54Z" transform="translate(-0.25 -0.25)" fill="#fff"/><path d="M158.67,129.12q.08,2.87-.08,5.88c-.3,4-1.46,7.19-3.47,9.51q-5.43,6.33-20.36,8.9c-2.52.5-4.65.85-6.41,1.05s-3.2.35-4.3.45q-24.58,1.36-31.53-27.15c-.2-.7-.58-2.34-1.13-4.9s-1.28-6.11-2.19-10.63c-.7-3.52-1.23-6.67-1.58-9.43a58.33,58.33,0,0,1-.53-7.17q0-8.75,3.77-13,6.8-7.84,23.38-13.12a37.77,37.77,0,0,1,10-1.66c3.62,0,6.43.9,8.45,2.71q2.4,2.11,2.26,13.13l-.6,44.34a25.9,25.9,0,0,0,1.88-6q.83-3.91,1.59-9.65,8.59-2.72,10.25-2.72,8.61,0,10.26,13.88C158.49,125.35,158.62,127.21,158.67,129.12Z" transform="translate(-0.25 -0.25)" fill="#7242f0"/></g></g></svg>